<?xml version="1.0" encoding="iso-8859-1"?>
<!-- Generator: Adobe Illustrator 17.1.0, SVG Export Plug-In . SVG Version: 6.00 Build 0)  -->
<!DOCTYPE svg PUBLIC "-//W3C//DTD SVG 1.1//EN" "http://www.w3.org/Graphics/SVG/1.1/DTD/svg11.dtd">
<svg version="1.1" id="Layer_1" xmlns="http://www.w3.org/2000/svg" xmlns:xlink="http://www.w3.org/1999/xlink" x="0px" y="0px"
	 viewBox="0 0 127.394 127.147" style="enable-background:new 0 0 127.394 127.147;" xml:space="preserve">
<g>
	<path style="fill:#E41E2B;" d="M121.212,65.469c0.017-0.578,0.019-1.175,0.019-1.175c0.001-0.305,0.199-0.706,0.44-0.893
		l3.31-2.564c0.241-0.186,0.426-0.588,0.412-0.892l-0.09-1.942c-0.014-0.304-0.236-0.687-0.493-0.85l-3.882-2.471
		c-0.257-0.164-0.516-0.542-0.576-0.84l-1.541-6.525c-0.08-0.294-0.003-0.738,0.173-0.987l2.396-3.41
		c0.175-0.249,0.234-0.688,0.131-0.974l-0.658-1.83c-0.103-0.287-0.428-0.587-0.721-0.667l-4.435-1.216
		c-0.294-0.081-0.653-0.365-0.799-0.632l-3.402-5.766c-0.164-0.257-0.221-0.704-0.127-0.994l1.29-3.981
		c0.094-0.29,0.021-0.726-0.162-0.969l-1.168-1.554c-0.183-0.243-0.582-0.435-0.886-0.425l-4.612,0.146
		c-0.304,0.01-0.732-0.157-0.949-0.37l-4.936-4.509c-0.232-0.198-0.418-0.609-0.413-0.913l0.059-4.181
		c0.004-0.305-0.194-0.7-0.441-0.879l-1.574-1.141c-0.247-0.179-0.684-0.244-0.972-0.145l-4.35,1.494
		c-0.288,0.099-0.745,0.066-1.016-0.074l-6.064-2.86c-0.28-0.121-0.579-0.458-0.664-0.751l-1.173-4.001
		c-0.086-0.292-0.392-0.612-0.68-0.71l-1.841-0.626c-0.288-0.098-0.726-0.031-0.972,0.148l-3.716,2.71
		c-0.246,0.179-0.693,0.283-0.993,0.23l-6.627-0.932c-0.303-0.032-0.688-0.267-0.856-0.521l-2.31-3.493
		c-0.168-0.254-0.555-0.469-0.859-0.478L62.54,2c-0.304-0.009-0.703,0.184-0.885,0.428L58.897,6.12
		c-0.182,0.244-0.579,0.474-0.881,0.511L51.4,7.676c-0.299,0.058-0.736-0.053-0.972-0.246l-3.222-2.645
		c-0.235-0.193-0.668-0.285-0.962-0.203l-1.874,0.52c-0.293,0.081-0.617,0.383-0.719,0.67L42.108,10.1
		c-0.102,0.287-0.413,0.624-0.691,0.75l-6.01,2.963c-0.268,0.144-0.719,0.167-1,0.052l-3.869-1.582
		c-0.282-0.115-0.722-0.075-0.979,0.089l-1.637,1.049c-0.256,0.164-0.477,0.548-0.49,0.852l-0.199,4.608
		c-0.013,0.304-0.211,0.718-0.439,0.919l-4.861,4.587c-0.214,0.216-0.638,0.371-0.941,0.344l-4.17-0.372
		c-0.303-0.027-0.712,0.141-0.909,0.374l-1.255,1.485c-0.197,0.233-0.294,0.664-0.217,0.959l1.166,4.455
		c0.077,0.295,0.01,0.748-0.149,1.008l-3.306,5.827c-0.141,0.27-0.501,0.543-0.798,0.606l-4.078,0.871
		c-0.298,0.064-0.639,0.345-0.758,0.625l-0.762,1.789c-0.119,0.28-0.086,0.721,0.075,0.98l2.421,3.904
		c0.161,0.259,0.23,0.712,0.155,1.007L6.98,54.794c-0.055,0.3-0.317,0.666-0.583,0.815l-3.651,2.04
		c-0.266,0.149-0.509,0.518-0.541,0.821l-0.201,1.934c-0.031,0.303,0.131,0.714,0.36,0.914l3.48,3.03
		c0.23,0.2,0.43,0.612,0.444,0.917l0.547,6.669c0.035,0.302-0.108,0.73-0.318,0.951l-2.882,3.019
		c-0.21,0.22-0.334,0.645-0.275,0.944l0.378,1.907c0.059,0.299,0.335,0.644,0.614,0.768l4.2,1.861
		c0.278,0.123,0.591,0.459,0.696,0.745l2.504,6.22c0.123,0.278,0.113,0.729-0.023,1.002l-1.864,3.734
		c-0.136,0.272-0.129,0.715,0.016,0.983l0.923,1.711c0.145,0.268,0.51,0.517,0.813,0.552l4.575,0.542
		c0.302,0.036,0.7,0.264,0.884,0.506l4.216,5.189c0.2,0.23,0.323,0.663,0.273,0.964l-0.683,4.133c-0.05,0.3,0.087,0.721,0.305,0.934
		l1.387,1.363c0.217,0.213,0.64,0.343,0.94,0.288l4.535-0.831c0.3-0.055,0.747,0.046,0.994,0.224l5.558,3.73
		c0.258,0.161,0.504,0.54,0.545,0.842l0.564,4.135c0.041,0.302,0.296,0.663,0.567,0.803l1.727,0.893
		c0.27,0.14,0.713,0.139,0.983-0.001l4.072-2.122c0.27-0.141,0.727-0.176,1.016-0.079l6.425,1.917
		c0.295,0.077,0.641,0.366,0.769,0.642l1.759,3.788c0.128,0.276,0.478,0.546,0.778,0.6l1.914,0.345
		c0.3,0.054,0.722-0.077,0.939-0.291l3.281-3.243c0.217-0.214,0.643-0.376,0.947-0.36c0,0,0.62,0.033,1.211,0.05
		c2.033,0.058,5.476-0.113,5.476-0.113c0.304-0.015,0.72,0.157,0.924,0.384l2.8,3.105c0.204,0.226,0.618,0.381,0.921,0.344
		l1.93-0.235c0.302-0.037,0.667-0.286,0.811-0.555l2.171-4.051c0.144-0.268,0.501-0.555,0.795-0.638l6.392-2.029
		c0.287-0.102,0.736-0.058,0.997,0.098l3.581,2.135c0.262,0.156,0.703,0.182,0.981,0.058l1.775-0.793
		c0.278-0.124,0.553-0.47,0.612-0.769l0.882-4.517c0.058-0.299,0.315-0.679,0.571-0.844l5.491-3.821
		c0.244-0.182,0.686-0.273,0.981-0.201l4.07,0.989c0.296,0.072,0.725-0.033,0.955-0.234l1.463-1.281
		c0.229-0.201,0.39-0.613,0.358-0.915l-0.49-4.588c-0.032-0.303,0.102-0.741,0.298-0.974l4.132-5.26
		c0.18-0.246,0.576-0.462,0.88-0.48l4.169-0.253c0.304-0.018,0.683-0.246,0.843-0.505l1.02-1.655c0.16-0.259,0.192-0.7,0.072-0.98
		l-1.813-4.221c-0.12-0.28-0.121-0.738-0.003-1.019l2.396-6.264c0.099-0.288,0.413-0.611,0.698-0.719l3.904-1.469
		c0.285-0.107,0.581-0.436,0.657-0.731l0.487-1.882c0.076-0.295-0.023-0.726-0.22-0.958l-2.985-3.509
		c-0.197-0.232-0.332-0.67-0.299-0.972C120.78,70.967,121.153,67.515,121.212,65.469z"/>
	<path style="fill:none;stroke:#FFFFFF;stroke-width:4;stroke-miterlimit:10;" d="M121.212,65.469
		c0.017-0.578,0.019-1.175,0.019-1.175c0.001-0.305,0.199-0.706,0.44-0.893l3.31-2.564c0.241-0.186,0.426-0.588,0.412-0.892
		l-0.09-1.942c-0.014-0.304-0.236-0.687-0.493-0.85l-3.882-2.471c-0.257-0.164-0.516-0.542-0.576-0.84l-1.541-6.525
		c-0.08-0.294-0.003-0.738,0.173-0.987l2.396-3.41c0.175-0.249,0.234-0.688,0.131-0.974l-0.658-1.83
		c-0.103-0.287-0.428-0.587-0.721-0.667l-4.435-1.216c-0.294-0.081-0.653-0.365-0.799-0.632l-3.402-5.766
		c-0.164-0.257-0.221-0.704-0.127-0.994l1.29-3.981c0.094-0.29,0.021-0.726-0.162-0.969l-1.168-1.554
		c-0.183-0.243-0.582-0.435-0.886-0.425l-4.612,0.146c-0.304,0.01-0.732-0.157-0.949-0.37l-4.936-4.509
		c-0.232-0.198-0.418-0.609-0.413-0.913l0.059-4.181c0.004-0.305-0.194-0.7-0.441-0.879l-1.574-1.141
		c-0.247-0.179-0.684-0.244-0.972-0.145l-4.35,1.494c-0.288,0.099-0.745,0.066-1.016-0.074l-6.064-2.86
		c-0.28-0.121-0.579-0.458-0.664-0.751l-1.173-4.001c-0.086-0.292-0.392-0.612-0.68-0.71l-1.841-0.626
		c-0.288-0.098-0.726-0.031-0.972,0.148l-3.716,2.71c-0.246,0.179-0.693,0.283-0.993,0.23l-6.627-0.932
		c-0.303-0.032-0.688-0.267-0.856-0.521l-2.31-3.493c-0.168-0.254-0.555-0.469-0.859-0.478L62.54,2
		c-0.304-0.009-0.703,0.184-0.885,0.428L58.897,6.12c-0.182,0.244-0.579,0.474-0.881,0.511L51.4,7.676
		c-0.299,0.058-0.736-0.053-0.972-0.246l-3.222-2.645c-0.235-0.193-0.668-0.285-0.962-0.203l-1.874,0.52
		c-0.293,0.081-0.617,0.383-0.719,0.67L42.108,10.1c-0.102,0.287-0.413,0.624-0.691,0.75l-6.01,2.963
		c-0.268,0.144-0.719,0.167-1,0.052l-3.869-1.582c-0.282-0.115-0.722-0.075-0.979,0.089l-1.637,1.049
		c-0.256,0.164-0.477,0.548-0.49,0.852l-0.199,4.608c-0.013,0.304-0.211,0.718-0.439,0.919l-4.861,4.587
		c-0.214,0.216-0.638,0.371-0.941,0.344l-4.17-0.372c-0.303-0.027-0.712,0.141-0.909,0.374l-1.255,1.485
		c-0.197,0.233-0.294,0.664-0.217,0.959l1.166,4.455c0.077,0.295,0.01,0.748-0.149,1.008l-3.306,5.827
		c-0.141,0.27-0.501,0.543-0.798,0.606l-4.078,0.871c-0.298,0.064-0.639,0.345-0.758,0.625l-0.762,1.789
		c-0.119,0.28-0.086,0.721,0.075,0.98l2.421,3.904c0.161,0.259,0.23,0.712,0.155,1.007L6.98,54.794
		c-0.055,0.3-0.317,0.666-0.583,0.815l-3.651,2.04c-0.266,0.149-0.509,0.518-0.541,0.821l-0.201,1.934
		c-0.031,0.303,0.131,0.714,0.36,0.914l3.48,3.03c0.23,0.2,0.43,0.612,0.444,0.917l0.547,6.669c0.035,0.302-0.108,0.73-0.318,0.951
		l-2.882,3.019c-0.21,0.22-0.334,0.645-0.275,0.944l0.378,1.907c0.059,0.299,0.335,0.644,0.614,0.768l4.2,1.861
		c0.278,0.123,0.591,0.459,0.696,0.745l2.504,6.22c0.123,0.278,0.113,0.729-0.023,1.002l-1.864,3.734
		c-0.136,0.272-0.129,0.715,0.016,0.983l0.923,1.711c0.145,0.268,0.51,0.517,0.813,0.552l4.575,0.542
		c0.302,0.036,0.7,0.264,0.884,0.506l4.216,5.189c0.2,0.23,0.323,0.663,0.273,0.964l-0.683,4.133c-0.05,0.3,0.087,0.721,0.305,0.934
		l1.387,1.363c0.217,0.213,0.64,0.343,0.94,0.288l4.535-0.831c0.3-0.055,0.747,0.046,0.994,0.224l5.558,3.73
		c0.258,0.161,0.504,0.54,0.545,0.842l0.564,4.135c0.041,0.302,0.296,0.663,0.567,0.803l1.727,0.893
		c0.27,0.14,0.713,0.139,0.983-0.001l4.072-2.122c0.27-0.141,0.727-0.176,1.016-0.079l6.425,1.917
		c0.295,0.077,0.641,0.366,0.769,0.642l1.759,3.788c0.128,0.276,0.478,0.546,0.778,0.6l1.914,0.345
		c0.3,0.054,0.722-0.077,0.939-0.291l3.281-3.243c0.217-0.214,0.643-0.376,0.947-0.36c0,0,0.62,0.033,1.211,0.05
		c2.033,0.058,5.476-0.113,5.476-0.113c0.304-0.015,0.72,0.157,0.924,0.384l2.8,3.105c0.204,0.226,0.618,0.381,0.921,0.344
		l1.93-0.235c0.302-0.037,0.667-0.286,0.811-0.555l2.171-4.051c0.144-0.268,0.501-0.555,0.795-0.638l6.392-2.029
		c0.287-0.102,0.736-0.058,0.997,0.098l3.581,2.135c0.262,0.156,0.703,0.182,0.981,0.058l1.775-0.793
		c0.278-0.124,0.553-0.47,0.612-0.769l0.882-4.517c0.058-0.299,0.315-0.679,0.571-0.844l5.491-3.821
		c0.244-0.182,0.686-0.273,0.981-0.201l4.07,0.989c0.296,0.072,0.725-0.033,0.955-0.234l1.463-1.281
		c0.229-0.201,0.39-0.613,0.358-0.915l-0.49-4.588c-0.032-0.303,0.102-0.741,0.298-0.974l4.132-5.26
		c0.18-0.246,0.576-0.462,0.88-0.48l4.169-0.253c0.304-0.018,0.683-0.246,0.843-0.505l1.02-1.655c0.16-0.259,0.192-0.7,0.072-0.98
		l-1.813-4.221c-0.12-0.28-0.121-0.738-0.003-1.019l2.396-6.264c0.099-0.288,0.413-0.611,0.698-0.719l3.904-1.469
		c0.285-0.107,0.581-0.436,0.657-0.731l0.487-1.882c0.076-0.295-0.023-0.726-0.22-0.958l-2.985-3.509
		c-0.197-0.232-0.332-0.67-0.299-0.972C120.78,70.967,121.153,67.515,121.212,65.469z"/>
</g>
</svg>
