<?xml version="1.0" encoding="iso-8859-1"?>
<!-- Generator: Adobe Illustrator 17.1.0, SVG Export Plug-In . SVG Version: 6.00 Build 0)  -->
<!DOCTYPE svg PUBLIC "-//W3C//DTD SVG 1.1//EN" "http://www.w3.org/Graphics/SVG/1.1/DTD/svg11.dtd">
<svg version="1.1" id="Layer_1" xmlns="http://www.w3.org/2000/svg" xmlns:xlink="http://www.w3.org/1999/xlink" x="0px" y="0px"
	 viewBox="0 0 66.56 230.912" style="enable-background:new 0 0 66.56 230.912;" xml:space="preserve">
<path style="fill:#8F0B04;" d="M62.392,86.592c-0.051-0.13-0.088-0.261-0.141-0.391c0,0,0.625-2.86-0.293-5.721
	c-0.598-1.859-4.79-11.897-8.075-22.753c-1.768-5.839-3.277-11.91-3.813-17.081c-0.492-4.742-0.845-8.606-1.112-11.783
	c-0.566-6.729-0.711-10.081-0.711-10.081s4.625-3.344-0.894-12.903c0,0,3.707-5.808-0.607-5.818L20.33,0
	c-4.311-0.01-0.63,5.815-0.63,5.815c-5.566,9.532-0.955,13.182-0.955,13.182S18.595,22.2,18,28.864
	c-0.283,3.161-0.665,7.093-1.181,11.847c-0.561,5.161-2.094,11.206-3.885,17.017C9.598,68.557,5.353,78.56,4.747,80.417
	c-0.93,2.857-0.322,5.685-0.322,5.685c-0.066,0.163-0.114,0.327-0.178,0.49c-4.003,10.13-4.56,20.555-4.121,28.864
	c0.446,8.441,1.902,14.696,1.76,16.236c-0.13,1.412,0.429,6.278,1.272,12.628c0.995,7.49,2.389,17.053,3.535,25.552
	c0.155,1.148,0.195,2.215,0.275,3.311c0.869,11.863-2.287,20.83-4.156,28.864c-0.322,1.383-0.609,2.746-0.822,4.086
	c-1.567,9.851,3.793,22.428,3.793,22.428l0.195,0.001c1.557,0.003,12.985,2.317,26.884,2.349
	c13.895,0.032,25.338-2.227,26.894-2.224l0.465,0.001c0,0,5.417-12.556,3.9-22.414c-0.214-1.39-0.511-2.8-0.84-4.227
	c-1.857-8.035-4.971-16.913-3.95-28.864c0.083-0.971,0.115-1.904,0.257-2.917c1.201-8.586,2.658-18.348,3.69-25.947
	c0.854-6.291,1.419-11.105,1.297-12.499c-0.136-1.548,1.362-7.859,1.84-16.365C66.885,107.138,66.363,96.722,62.392,86.592z"/>
</svg>
