<?xml version="1.0" encoding="iso-8859-1"?>
<!-- Generator: Adobe Illustrator 17.1.0, SVG Export Plug-In . SVG Version: 6.00 Build 0)  -->
<!DOCTYPE svg PUBLIC "-//W3C//DTD SVG 1.1//EN" "http://www.w3.org/Graphics/SVG/1.1/DTD/svg11.dtd">
<svg version="1.1" id="Layer_1" xmlns="http://www.w3.org/2000/svg" xmlns:xlink="http://www.w3.org/1999/xlink" x="0px" y="0px"
	 viewBox="0 0 20 20" style="enable-background:new 0 0 20 20;" xml:space="preserve">
<g>
	<path style="fill:#A6A8AB;" d="M10.074,15.718l-0.073-0.001c-1.161,0-2.101,0.909-2.139,2.069c-0.04,1.18,0.888,2.173,2.068,2.212
		L10.003,20c1.161,0,2.1-0.909,2.139-2.069C12.182,16.751,11.254,15.758,10.074,15.718z"/>
	<path style="fill:#FFFFFF;" d="M15.558,13.414c-0.545,0-1.064,0.205-1.462,0.577c-0.418,0.39-0.659,0.921-0.678,1.492
		c-0.019,0.572,0.185,1.117,0.576,1.535c0.403,0.432,0.974,0.679,1.565,0.679c0.545,0,1.064-0.205,1.462-0.577
		c0.418-0.391,0.659-0.921,0.678-1.492c0.019-0.572-0.185-1.117-0.576-1.535C16.719,13.662,16.149,13.414,15.558,13.414z"/>
	<path style="fill:#A6A8AB;" d="M15.718,9.926c-0.04,1.18,0.888,2.173,2.068,2.212l0.073,0.001c1.161,0,2.1-0.909,2.139-2.069
		c0.04-1.18-0.888-2.173-2.068-2.212l-0.073-0.001C16.697,7.857,15.757,8.766,15.718,9.926z"/>
	<path style="fill:#FFFFFF;" d="M15.556,6.583c0.545,0,1.064-0.205,1.462-0.577c0.418-0.391,0.659-0.921,0.678-1.492
		c0.019-0.572-0.185-1.117-0.576-1.535c-0.404-0.432-0.974-0.679-1.565-0.679c-0.545,0-1.064,0.205-1.462,0.577
		c-0.418,0.391-0.659,0.921-0.678,1.492c-0.019,0.572,0.185,1.117,0.576,1.535C14.395,6.336,14.965,6.583,15.556,6.583z"/>
	<path style="fill:#A6A8AB;" d="M9.926,4.282l0.073,0.001c1.161,0,2.1-0.909,2.139-2.069c0.019-0.572-0.185-1.117-0.576-1.535
		S10.642,0.02,10.07,0.001L9.997,0c-1.161,0-2.1,0.909-2.139,2.069C7.818,3.249,8.746,4.242,9.926,4.282z"/>
	<path style="fill:#FFFFFF;" d="M4.442,6.586c0.545,0,1.064-0.205,1.462-0.577c0.418-0.391,0.659-0.921,0.678-1.492
		C6.601,3.945,6.397,3.4,6.006,2.982C5.603,2.55,5.033,2.303,4.442,2.303c-0.545,0-1.064,0.205-1.462,0.577
		C2.117,3.687,2.071,5.044,2.878,5.907C3.281,6.339,3.851,6.586,4.442,6.586z"/>
	<path style="fill:#A6A8AB;" d="M0.577,11.464c0.391,0.418,0.921,0.659,1.493,0.678l0.072,0.001c1.161,0,2.101-0.909,2.14-2.069
		c0.04-1.18-0.888-2.173-2.068-2.212L2.141,7.86c-1.161,0-2.101,0.909-2.14,2.069C-0.018,10.501,0.186,11.046,0.577,11.464z"/>
	<path style="fill:#FFFFFF;" d="M4.444,13.417c-0.545,0-1.064,0.205-1.462,0.577C2.12,14.8,2.074,16.158,2.88,17.021
		C3.284,17.452,3.854,17.7,4.445,17.7c0.545,0,1.064-0.205,1.462-0.577c0.418-0.391,0.659-0.921,0.678-1.492
		c0.019-0.572-0.185-1.117-0.576-1.534C5.605,13.664,5.035,13.417,4.444,13.417z"/>
</g>
</svg>
