<?xml version="1.0" encoding="iso-8859-1"?>
<!-- Generator: Adobe Illustrator 17.1.0, SVG Export Plug-In . SVG Version: 6.00 Build 0)  -->
<!DOCTYPE svg PUBLIC "-//W3C//DTD SVG 1.1//EN" "http://www.w3.org/Graphics/SVG/1.1/DTD/svg11.dtd">
<svg version="1.1" id="Layer_1" xmlns="http://www.w3.org/2000/svg" xmlns:xlink="http://www.w3.org/1999/xlink" x="0px" y="0px"
	 viewBox="0 0 179.207 30" style="enable-background:new 0 0 179.207 30;" xml:space="preserve">
<g>
	<path style="fill:#FFFFFF;" d="M104.169,30h3.679V17.369h14.763V30h3.679V0.077h-22.121V30z M122.611,3.756v9.935h-14.763V3.756
		H122.611z"/>
	<polygon style="fill:#FFFFFF;" points="149.07,13.69 134.306,13.69 134.306,0.001 130.628,0.001 130.628,30 134.306,30 
		134.306,17.369 149.07,17.369 149.07,30 152.748,30 152.748,0.001 149.07,0.001 	"/>
	<polygon style="fill:#FFFFFF;" points="175.528,0.001 175.528,13.69 160.765,13.69 160.765,0.001 157.086,0.001 157.086,30 
		160.765,30 160.765,17.369 175.528,17.369 175.528,30 179.207,30 179.207,0.001 	"/>
	<polygon style="fill:#FFFFFF;" points="0,8.02 0,30 3.962,30 7.924,30 7.924,8.02 13.962,8.02 13.962,8.02 13.962,30 17.924,30 
		21.886,30 21.886,8.02 21.98,8.02 28.018,8.02 28.018,30 31.98,30 35.943,30 35.943,0.095 0,0.095 	"/>
	<polygon style="fill:#FFFFFF;" points="77.662,7.925 95.045,7.925 95.044,0.001 69.738,0.001 69.738,30 95.044,30 95.044,22.076 
		77.662,22.076 77.662,21.981 	"/>
	<polygon style="fill:#FFFFFF;" points="40.112,7.925 57.494,7.925 57.494,11.887 40.112,11.887 40.112,30 44.074,30 48.036,30 
		48.036,19.811 65.419,19.809 65.419,0 40.112,0.001 	"/>
</g>
</svg>
