<?xml version="1.0" encoding="iso-8859-1"?>
<!-- Generator: Adobe Illustrator 17.1.0, SVG Export Plug-In . SVG Version: 6.00 Build 0)  -->
<!DOCTYPE svg PUBLIC "-//W3C//DTD SVG 1.1//EN" "http://www.w3.org/Graphics/SVG/1.1/DTD/svg11.dtd">
<svg version="1.1" id="Layer_1" xmlns="http://www.w3.org/2000/svg" xmlns:xlink="http://www.w3.org/1999/xlink" x="0px" y="0px"
	 viewBox="0 0 358.414 60" style="enable-background:new 0 0 358.414 60;" xml:space="preserve">
<g>
	<path style="fill:#E41E2B;" d="M208.338,60h7.357V34.737h29.527V60h7.357V0.154h-44.241V60z M245.222,7.511V27.38h-29.527V7.511
		H245.222z"/>
	<polygon style="fill:#E41E2B;" points="298.139,27.38 268.612,27.38 268.612,0.001 261.255,0.001 261.255,60 268.612,60 
		268.612,34.737 298.139,34.737 298.139,60 305.496,60 305.496,0.001 298.139,0.001 	"/>
	<polygon style="fill:#E41E2B;" points="351.057,0.001 351.057,27.38 321.53,27.38 321.53,0.001 314.173,0.001 314.173,60 
		321.53,60 321.53,34.737 351.057,34.737 351.057,60 358.414,60 358.414,0.001 	"/>
	<polygon style="fill:#E41E2B;" points="0,16.039 0,60 7.924,60 15.848,60 15.848,16.039 27.925,16.039 27.925,16.04 27.925,60 
		35.849,60 43.773,60 43.773,16.039 43.96,16.039 56.037,16.04 56.037,60 63.961,60 71.885,60 71.885,0.191 0,0.191 	"/>
	<polygon style="fill:#E41E2B;" points="155.325,15.85 190.089,15.85 190.089,0.001 139.476,0.001 139.476,60 190.089,60 
		190.089,44.152 155.325,44.152 155.325,43.962 	"/>
	<polygon style="fill:#E41E2B;" points="80.224,15.85 114.989,15.85 114.989,23.774 80.224,23.774 80.224,60 88.148,60 96.072,60 
		96.073,39.622 130.837,39.617 130.837,0 80.224,0.001 	"/>
</g>
</svg>
