<?xml version="1.0" encoding="utf-8"?>
<!-- Generator: Adobe Illustrator 15.0.2, SVG Export Plug-In . SVG Version: 6.00 Build 0)  -->
<!DOCTYPE svg PUBLIC "-//W3C//DTD SVG 1.1//EN" "http://www.w3.org/Graphics/SVG/1.1/DTD/svg11.dtd">
<svg version="1.1" id="Layer_1" xmlns="http://www.w3.org/2000/svg" xmlns:xlink="http://www.w3.org/1999/xlink" x="0px" y="0px"
	 width="66.56px" height="230.912px" viewBox="0 0 66.56 230.912" enable-background="new 0 0 66.56 230.912" xml:space="preserve">
<path fill="#8F191C" d="M62.391,86.591H4.247c-4.003,10.13-4.56,20.555-4.12,28.864c0.446,8.441,1.901,14.695,1.76,16.236
	c-0.13,1.412,0.428,6.277,1.272,12.627c0.995,7.49,2.388,17.054,3.535,25.554c0.155,1.147,0.195,2.215,0.275,3.312
	c0.869,11.862-2.287,20.829-4.156,28.863c-0.321,1.383-0.609,2.746-0.821,4.087c-1.568,9.851,3.793,22.427,3.793,22.427l0.195,0.002
	c1.557,0.002,12.985,2.316,26.884,2.349c13.895,0.032,25.338-2.228,26.894-2.224h0.466c0,0,5.418-12.556,3.899-22.414
	c-0.213-1.39-0.511-2.799-0.84-4.227c-1.856-8.035-4.972-16.913-3.95-28.863c0.083-0.971,0.115-1.904,0.257-2.916
	c1.201-8.588,2.658-18.35,3.691-25.949c0.854-6.291,1.419-11.104,1.297-12.498c-0.136-1.549,1.362-7.859,1.84-16.365
	C66.885,107.137,66.362,96.721,62.391,86.591"/>
<path fill="#FFFFFF" d="M61.958,80.48c-0.597-1.859-4.789-11.897-8.074-22.753c-1.769-5.838-3.277-11.91-3.813-17.08
	c-0.491-4.743-0.845-8.606-1.112-11.783c-0.565-6.729-0.711-10.082-0.711-10.082s4.627-3.344-0.893-12.903
	c0,0,3.706-5.807-0.607-5.817L20.33,0c-4.311-0.011-0.63,5.814-0.63,5.814c-5.567,9.533-0.955,13.183-0.955,13.183
	s-0.15,3.202-0.745,9.867c-0.283,3.161-0.665,7.092-1.181,11.846c-0.56,5.161-2.093,11.206-3.884,17.017
	c-3.337,10.83-7.582,20.832-8.188,22.69c-0.93,2.857-0.322,5.684-0.322,5.684c-0.067,0.163-0.114,0.328-0.178,0.491h58.145
	c-0.052-0.13-0.089-0.261-0.142-0.391C62.25,86.201,62.875,83.34,61.958,80.48"/>
</svg>
