<?xml version="1.0" encoding="iso-8859-1"?>
<!-- Generator: Adobe Illustrator 17.1.0, SVG Export Plug-In . SVG Version: 6.00 Build 0)  -->
<!DOCTYPE svg PUBLIC "-//W3C//DTD SVG 1.1//EN" "http://www.w3.org/Graphics/SVG/1.1/DTD/svg11.dtd">
<svg version="1.1" id="Layer_1" xmlns="http://www.w3.org/2000/svg" xmlns:xlink="http://www.w3.org/1999/xlink" x="0px" y="0px"
	 viewBox="0 0 334.701 95.032" style="enable-background:new 0 0 334.701 95.032;" xml:space="preserve">
<g>
	<path style="fill:#FFFFFF;" d="M255.744,60.859h3.871V47.569h15.535v13.291h3.871V29.374h-23.276V60.859z M275.149,33.244v10.453
		h-15.535V33.244H275.149z"/>
	<polygon style="fill:#FFFFFF;" points="302.99,43.698 287.455,43.698 287.455,29.293 283.585,29.293 283.585,60.859 
		287.455,60.859 287.455,47.569 302.99,47.569 302.99,60.859 306.861,60.859 306.861,29.293 302.99,29.293 	"/>
	<polygon style="fill:#FFFFFF;" points="330.83,29.293 330.83,43.698 315.296,43.698 315.296,29.293 311.425,29.293 311.425,60.859 
		315.296,60.859 315.296,47.569 330.83,47.569 330.83,60.859 334.701,60.859 334.701,29.293 	"/>
	<polygon style="fill:#FFFFFF;" points="146.135,37.731 146.135,60.86 150.304,60.86 154.473,60.859 154.473,37.731 160.826,37.731 
		160.826,37.731 160.826,60.86 164.995,60.86 169.164,60.859 169.164,37.731 169.263,37.731 175.616,37.731 175.616,60.86 
		179.785,60.86 183.954,60.859 183.954,29.393 146.135,29.393 	"/>
	<polygon style="fill:#FFFFFF;" points="227.853,37.631 246.143,37.631 246.143,29.293 219.515,29.293 219.515,60.86 246.143,60.86 
		246.143,52.521 227.853,52.521 227.853,52.422 	"/>
	<polygon style="fill:#FFFFFF;" points="188.342,37.631 206.632,37.631 206.632,41.801 188.341,41.801 188.341,60.86 192.511,60.86 
		196.68,60.86 196.68,50.139 214.97,50.136 214.97,29.293 188.341,29.293 	"/>
</g>
<rect x="0" y="0" style="fill:none;" width="239.857" height="95.032"/>
<g id="g3">
	<path id="path5" style="fill:#FFFFFF;" d="M67.874,57.471c-3.665-2.361-8.639-2.775-16.66-0.55
		c-8.551,2.01-11.403,3.298-15.147,0.712c-1.439-1.27-1.954-3.316-1.569-6.262c0.893-4.803,3.307-9.425,7.595-14.552
		c2.393-2.667,4.613-4.956,7.545-5.875c2.247-0.577,2.037,1.189,1.765,1.442c-0.287,0-0.769,0.045-1.141,0.288
		c-0.302,0.234-1.132,0.991-1.177,2.01c-0.064,1.559,1.549,1.234,2.245,0.378c0.75-0.964,1.858-2.811,0.986-4.532
		c-0.365-0.613-0.997-1.036-1.781-1.18c-2.684-0.153-5.184,1.126-7.491,2.541c-5.046,3.505-9.082,8.362-11.366,13.678
		c-1.317,3.208-2.508,7.802-0.723,11.542c1.381,2.595,4.247,3.973,7.668,3.685c2.399-0.252,5.299-1.027,7.25-1.495
		c1.951-0.469,11.937-3.901,15.218,2.073c0,0,1.091-2.118,3.818-2.163c2.242-0.207,5.476,0.649,7.831,2.379
		C71.955,60.409,69.73,58.67,67.874,57.471L67.874,57.471z"/>
	<path id="path7" style="fill:#FFFFFF;" d="M52.232,37.424c-1.868-1.225-5.622,1.117-8.628,5.136
		c-2.749,3.605-3.937,7.794-2.645,9.731c1.922,2.28,5.49-1.036,7.007-2.811l0.196-0.207c1.032-1.108,1.829-2.442,2.601-3.721
		c0,0,0.709-1.171,0.743-1.226c0.438-0.081,0.966-0.207,1.561-0.378c-0.008,0.027-2.276,3.838-2.045,5.73
		c0.072,0.577,0.017,2.686,2.076,3.325c2.744,0.46,4.934-1.667,6.867-3.559c0,0,0.329-0.315,0.516-0.495
		c-0.047,0.189-0.109,0.441-0.109,0.441c-0.803,2.793,0.279,3.379,0.957,3.596c2.047,0.595,4.492-2.379,4.5-2.379
		c-0.063,0.937-0.249,1.712,0.739,2.333c0.932,0.334,1.875-0.175,2.592-0.653c2.582-1.82,4.663-4.669,6.343-7.131h-1.072
		c-0.013,0-2.645,3.815-4.354,4.644c-0.003,0-0.314,0.16-0.493,0.033c-0.222-0.189-0.134-0.583,0.003-0.862
		c0.009-0.018,6.599-11.449,6.599-11.449h-3.112c0,0-0.34,0.55-0.368,0.586c-0.021-0.018-0.071-0.113-0.105-0.158
		c-1.928-2.667-6.294,1.435-9.581,6.193c-1.266,1.829-2.877,3.889-4.547,5.376c0,0-2.475,2.269-3.533,0.639
		c-0.387-0.685-0.268-1.686-0.05-2.344c1.231-3.505,3.353-6.686,5.767-8.605c0.682-0.531,1.422-0.685,1.79-0.46
		c0.35,0.208,0.407,0.721,0.185,1.072c-0.562-0.018-1.013,0.153-1.379,0.531c-0.721,0.757-0.972,1.487-0.743,2.172
		c1.114,1.586,3.337-1.55,3.229-3.46c-0.038-0.685-0.404-1.333-0.949-1.649c-0.813-0.486-2.052-0.36-2.855,0.027
		c-1.074,0.405-2.774,1.82-3.767,2.919c-1.249,1.379-3.392,2.91-4.062,2.739C52.327,42.514,54.136,38.811,52.232,37.424
		L52.232,37.424z M67.236,42.902c0.605-0.838,2.367-3.082,2.797-3.46c1.445-1.271,2.022-0.712,2.072-0.316
		c-1.348,2.415-2.94,5.181-4.436,7.668c0.003-0.009-0.468,0.712-0.468,0.712c-0.661,1.009-1.326,1.874-2.411,2.478
		c-0.155,0.045-0.41,0.063-0.58-0.063c-0.204-0.135-0.285-0.36-0.262-0.595C64.013,48.551,64.802,46.182,67.236,42.902
		L67.236,42.902z M50.306,44.352c0,0-0.027,0.081-0.041,0.108c-0.003,0-1.357,2.207-1.357,2.207c-0.817,1.09-1.837,2.46-3.111,3.118
		c-0.378,0.126-0.9,0.207-1.166-0.126c-0.564-0.676-0.273-1.613-0.037-2.37l0.084-0.27c0.677-1.838,1.752-3.46,2.798-4.965
		c0.013-0.009,0.042-0.018,0.053-0.018c0.002,0.009,0.007,0.009,0.008,0.027c0.656,1.261,1.887,1.847,2.808,2.117
		c0.006,0,0.011,0.009,0.011,0.027C50.357,44.235,50.342,44.272,50.306,44.352L50.306,44.352z M51.589,41.749
		c-0.006,0.018-0.603,1.387-0.603,1.387c-0.086,0.072-0.223,0.036-0.379,0l-0.268-0.045c-0.841-0.261-1.476-0.82-1.671-1.487
		c-0.27-1.298,0.839-2.316,1.327-2.685c0.469-0.325,1.197-0.496,1.62-0.162c0.261,0.306,0.36,0.703,0.36,1.136
		C51.974,40.478,51.794,41.136,51.589,41.749L51.589,41.749z"/>
	<path id="path9" style="fill:#FFFFFF;" d="M90.93,45.929c-0.3-0.649-1.012-1.063-1.772-1.018c-2.465,0.225-4.876,2.253-6.142,5.163
		c-0.664,1.496-1.027,2.73-1.265,4.694c0.767-0.883,2.33-2.333,4.104-3.126c0,0,0.241-1.883,1.473-3.559
		c0.466-0.694,1.398-1.811,2.445-1.514c0.915,0.307,0.593,2.838-0.622,5.289c-0.899,1.802-2.276,3.605-3.669,4.848
		c-1.231,1.045-3.053,2.307-4.647,1.334c-1.004-0.594-1.516-1.838-1.408-3.442c0.48-4.55,2.551-8.425,5.515-12.84
		c3.056-4.1,6.425-8.307,10.964-10.551c0.926-0.468,1.783-0.577,2.524-0.288c0,0-4.26,2.343-6.291,6.677
		c-0.517,1.099-1.235,2.586-0.512,3.901c0.378,0.685,1.049,0.739,1.59,0.703c2.489-0.577,4.098-2.901,5.412-5.028
		c0.762-1.613,1.439-3.217,1.439-5.001c0-0.216-0.011-0.504-0.03-0.721c1.189-0.63,3.628,0.487,3.628,0.487
		c1.906,0.631,5.964,3.74,7.332,4.334c0.668-0.775,1.765-1.946,2.383-2.532l-0.894-0.55c-1.432-0.874-2.945-1.703-4.435-2.523
		c-3.383-1.847-6.137-1.198-7.538-0.694c-0.551,0.198-1.054,0.369-1.054,0.369c-1.04-1.135-2.746-1.027-4.003-0.721
		c-4.52,1.297-8.717,4.46-13.216,9.947c-3.308,4.298-5.36,8.01-6.453,11.677c-0.843,2.469-1.099,6.1,0.958,8.253
		c1.749,1.829,4.069,1.432,5.707,0.775c3.549-1.748,6.739-5.515,8.328-9.849C91.164,49.137,91.59,47.317,90.93,45.929L90.93,45.929z
		 M99.091,32.351c-0.47,5.388-4.658,8.551-5.694,8.803c-0.628,0.126-1.7-0.153-0.743-2.414c1.409-3.046,3.814-5.632,6.395-6.956
		C99.111,32.008,99.109,32.152,99.091,32.351L99.091,32.351z"/>
	<path id="path11" style="fill:#FFFFFF;" d="M123.936,33.035c-2.253,1.28-4.588,2.108-7.416,1.82
		c-0.784,0.883-1.546,1.793-2.249,2.73c3.968,1.009,8.175-1.234,10.521-3.37c2.482-2.154,3.754-4.865,3.754-4.865
		S126.685,31.477,123.936,33.035L123.936,33.035z"/>
	<polygon id="polygon13" style="fill:#FFFFFF;" points="81.358,37.522 78.403,37.522 76.736,40.231 79.691,40.231 	"/>
	<path id="path15" style="fill:#FFFFFF;" d="M116.508,57.722c-0.318,0.216-0.764,0.05-0.597-0.445
		c0.416-1.261,2.069-3.832,2.069-3.832l4.604-8.166h-3.154c-0.15,0.246-0.47,0.812-0.47,0.812c-0.146-0.243-0.582-0.784-0.762-0.9
		c-0.77-0.487-1.901-0.257-2.681,0.185c-3.391,1.983-5.864,5.9-7.815,8.954c0,0-2.054,3.396-3.194,3.648
		c-0.89,0.072-0.798-1.127-0.76-1.406c0.344-2.019,1.143-3.938,1.948-5.677c1.638-1.135,3.507-2.622,5.205-4.253
		c3.686-3.523,6.793-7.515,7.247-8.407c0,0-0.492,0.099-1.072,0.117c-2.836,3.956-8.638,9.704-10.398,10.56
		c0.779-1.874,5.814-10.822,10.099-15.101l0.674-0.649c1.043-1.018,2.123-2.063,2.965-2.235c0.089-0.009,0.203,0,0.302,0.208
		c0.038,0.793-0.258,1.379-0.596,2.045l-0.474,0.973c0,0,0.672-0.126,1.113-0.271c0.512-0.964,1.079-2.045,0.87-3.333
		c-0.07-0.415-0.37-0.73-0.762-0.802c-1.278-0.243-2.671,0.703-3.792,1.469l-0.045,0.027c-5.762,4.514-10.628,11.02-14.881,19.904
		c-0.308,0.234-1.499,0.514-1.702,0.378c0.42-0.865,0.949-2.027,1.214-3.289c0.046-0.36,0.088-0.73,0.088-1.09
		c0-0.776-0.186-1.505-0.881-2.01c-0.815-0.406-1.821-0.216-2.5,0.09c-3.041,1.261-5.313,4.379-6.953,6.947
		c-0.882,1.631-1.761,3.378-2.005,5.379c-0.172,1.568,0.178,2.577,1.069,3.082c0.917,0.468,2.07-0.018,2.523-0.253
		c3.081-1.622,5.233-4.874,6.93-7.848c0.067-0.009,0.994-0.036,1.694-0.216c0.009,0,0.013,0,0.029,0.009
		c-0.04,0.135-0.402,1.216-0.402,1.216c-1.075,3.153-1.573,5.298-0.557,6.568c1.451,1.793,3.854-0.063,5.809-2.514
		c-0.42,2.937,1.103,3.397,2.263,3.172c1.333-0.36,2.818-1.784,3.508-2.514c-0.221,0.856-0.161,2.388,1.051,2.541
		c0.831,0.154,1.453-0.298,2.173-0.686c2.582-1.406,5.672-6.09,6.474-7.444h-1.052C119.785,54.389,118.334,56.649,116.508,57.722
		L116.508,57.722z M93.335,57.408c-0.164-0.243-0.218-0.509-0.223-0.797c-0.031-1.767,1.869-4.931,3.211-6.654
		c0.003,0,0.003,0,0.003,0c0.562,1.231,1.836,2.023,2.604,2.356C97.975,54.44,94.701,58.994,93.335,57.408L93.335,57.408z
		 M99.469,51.363c-0.091,0.063-1.697-0.477-2.007-1.964c-0.263-1.28,0.618-2.28,1.471-2.784c0.366-0.288,0.917-0.387,1.322-0.244
		c0.375,0.253,0.477,0.703,0.477,1.189c0,0.298-0.04,0.604-0.074,0.883c0,0-0.007,0.054-0.008,0.063
		C100.382,49.506,99.973,50.488,99.469,51.363L99.469,51.363z M112.346,56.841c-0.001,0-0.305,0.27-0.305,0.27
		c-0.433,0.387-0.879,0.802-1.417,0.594c-0.149-0.054-0.253-0.252-0.278-0.406c-0.024-1.108,0.475-2.135,0.959-3.135l0.124-0.262
		c1.392-2.325,3.01-5.064,5.387-6.965c0.401-0.289,0.835-0.532,1.294-0.342c0.106,0.099,0.228,0.27,0.228,0.441
		c0,0.054-0.048,0.198-0.076,0.243c-0.664,1.073-1.296,2.199-1.911,3.28C115.151,52.696,113.904,54.903,112.346,56.841
		L112.346,56.841z"/>
</g>
</svg>
