<?xml version="1.0" encoding="iso-8859-1"?>
<!-- Generator: Adobe Illustrator 17.1.0, SVG Export Plug-In . SVG Version: 6.00 Build 0)  -->
<!DOCTYPE svg PUBLIC "-//W3C//DTD SVG 1.1//EN" "http://www.w3.org/Graphics/SVG/1.1/DTD/svg11.dtd">
<svg version="1.1" id="Layer_1" xmlns="http://www.w3.org/2000/svg" xmlns:xlink="http://www.w3.org/1999/xlink" x="0px" y="0px"
	 viewBox="0 0 38.308 39.099" style="enable-background:new 0 0 38.308 39.099;" xml:space="preserve">
<path style="fill:#FFFFFF;" d="M26.597,1.538c2.329,1.025,4.36,2.423,6.096,4.194c1.735,1.77,3.105,3.836,4.109,6.197
	s1.507,4.893,1.507,7.596s-0.502,5.243-1.507,7.62s-2.374,4.451-4.109,6.222c-1.735,1.771-3.767,3.169-6.096,4.194
	c-2.329,1.025-4.817,1.538-7.465,1.538s-5.129-0.513-7.443-1.538c-2.313-1.025-4.338-2.423-6.073-4.194
	c-1.735-1.771-3.105-3.845-4.109-6.222S0,22.229,0,19.526s0.502-5.235,1.507-7.596s2.374-4.427,4.109-6.197
	c1.735-1.771,3.759-3.169,6.073-4.194S16.483,0,19.131,0S24.268,0.513,26.597,1.538z M22.282,8.527c-0.791,0-1.522,0.14-2.192,0.419
	c-0.67,0.28-1.256,0.652-1.758,1.118c-0.502,0.466-0.89,0.994-1.164,1.585c-0.274,0.59-0.411,1.181-0.411,1.771v2.47H13.15v4.847
	h3.607v9.787h4.794v-9.787h3.561v-4.847h-3.561v-1.258c0-0.373,0.145-0.668,0.434-0.885c0.289-0.217,0.54-0.326,0.753-0.326h3.607
	V8.527H22.282z"/>
</svg>
