<?xml version="1.0" encoding="iso-8859-1"?>
<!-- Generator: Adobe Illustrator 17.1.0, SVG Export Plug-In . SVG Version: 6.00 Build 0)  -->
<!DOCTYPE svg PUBLIC "-//W3C//DTD SVG 1.1//EN" "http://www.w3.org/Graphics/SVG/1.1/DTD/svg11.dtd">
<svg version="1.1" id="Layer_1" xmlns="http://www.w3.org/2000/svg" xmlns:xlink="http://www.w3.org/1999/xlink" x="0px" y="0px"
	 viewBox="0 0 26.054 19.484" style="enable-background:new 0 0 26.054 19.484;" xml:space="preserve">
<polygon style="fill:none;stroke:#000000;stroke-width:0.8112;stroke-linecap:round;stroke-linejoin:round;stroke-miterlimit:10;" points="
	7.965,19.079 1.173,16.143 3.597,12.483 13.411,10.854 23.224,12.483 25.648,16.143 18.857,19.079 "/>
<g>
	<polygon points="13.231,3.839 11.321,0 15.141,0 	"/>
	<polygon points="10.055,4.583 5.99,3.219 8.691,0.518 	"/>
	<polygon points="16.407,4.583 20.472,3.219 17.771,0.518 	"/>
</g>
<polygon style="fill:#FFFFFF;stroke:#000000;stroke-width:0.8112;stroke-linecap:round;stroke-linejoin:round;stroke-miterlimit:10;" points="
	7.965,17.316 1.173,14.381 3.597,10.721 13.411,9.092 23.224,10.721 25.648,14.381 18.857,17.316 "/>
<polygon style="stroke:#000000;stroke-width:0.8112;stroke-linecap:round;stroke-linejoin:round;stroke-miterlimit:10;" points="
	8.018,19.079 1.173,16.143 1.173,14.381 8.018,17.316 "/>
<rect x="7.965" y="17.316" style="stroke:#000000;stroke-width:0.8112;stroke-linecap:round;stroke-linejoin:round;stroke-miterlimit:10;" width="10.892" height="1.762"/>
<polygon style="stroke:#000000;stroke-width:0.8112;stroke-linecap:round;stroke-linejoin:round;stroke-miterlimit:10;" points="
	25.648,16.143 18.857,19.079 18.857,17.316 25.648,14.381 "/>
<path d="M21.777,7.711c-0.051-0.264-0.219-0.478-0.448-0.576c-0.121-0.051-0.253-0.062-0.378-0.04l-0.087,0.018
	c-1.73,0.333-6.231,1.212-10.652,2.128c-5.457,1.128-7.914,1.715-9.046,2.048c-0.016-0.007-0.025-0.023-0.042-0.03
	c-0.15-0.064-0.321-0.079-0.49-0.045c-0.414,0.081-0.692,0.44-0.621,0.8c0.041,0.205,0.182,0.373,0.391,0.462
	c0.145,0.062,0.323,0.08,0.49,0.047c0.185-0.037,0.341-0.14,0.459-0.274c1.136-0.121,3.601-0.5,9.137-1.546
	c4.38-0.824,8.901-1.728,10.641-2.082l0.12-0.022C21.62,8.523,21.859,8.127,21.777,7.711z"/>
</svg>
