<?xml version="1.0" encoding="iso-8859-1"?>
<!-- Generator: Adobe Illustrator 17.1.0, SVG Export Plug-In . SVG Version: 6.00 Build 0)  -->
<!DOCTYPE svg PUBLIC "-//W3C//DTD SVG 1.1//EN" "http://www.w3.org/Graphics/SVG/1.1/DTD/svg11.dtd">
<svg version="1.1" id="Layer_1" xmlns="http://www.w3.org/2000/svg" xmlns:xlink="http://www.w3.org/1999/xlink" x="0px" y="0px"
	 viewBox="0 0 19.264 27.756" style="enable-background:new 0 0 19.264 27.756;" xml:space="preserve">
<g>
	<path d="M9.334,25.973c-1.259-0.001-2.471-0.361-3.505-1.044c-2.823-1.866-3.604-5.683-1.739-8.506l2.617-3.963
		c0.292-0.441,0.616-0.655,0.992-0.655c0.314,0,0.589,0.155,0.793,0.29c0.41,0.271,0.615,0.738,0.572,1.196l3.508-5.313
		C12.813,7.617,13.215,7.4,13.65,7.4c0.253,0,0.498,0.074,0.71,0.214c0.41,0.271,0.615,0.738,0.572,1.196l0.334-0.506
		c0.239-0.362,0.641-0.579,1.076-0.579c0.252,0,0.497,0.074,0.709,0.213c0.287,0.189,0.483,0.48,0.552,0.817
		c0.069,0.337,0.003,0.681-0.187,0.968l-0.334,0.505c0.186-0.101,0.396-0.155,0.614-0.155c0.253,0,0.498,0.074,0.71,0.214
		c0.287,0.189,0.483,0.48,0.552,0.817c0.069,0.337,0.003,0.681-0.187,0.968l-1.67,2.528c0.186-0.1,0.396-0.155,0.613-0.155
		c0.253,0,0.498,0.074,0.71,0.214c0.306,0.202,0.496,0.512,0.535,0.874c0.04,0.367-0.077,0.77-0.337,1.164l-4.622,6.998
		C13.073,25.1,11.285,25.973,9.334,25.973C9.334,25.973,9.334,25.973,9.334,25.973z"/>
	<path style="fill:#FFFFFF;" d="M13.65,7.679c0.191,0,0.385,0.054,0.556,0.168c0.466,0.308,0.594,0.934,0.286,1.4l-4.288,6.492
		l0.337,0.223l4.957-7.504c0.194-0.294,0.516-0.454,0.844-0.454c0.191,0,0.384,0.054,0.556,0.167c0.466,0.308,0.594,0.935,0.286,1.4
		l-4.957,7.504l0.337,0.223l4.288-6.492c0.194-0.294,0.516-0.454,0.844-0.454c0.191,0,0.385,0.054,0.556,0.167
		c0.466,0.308,0.594,0.934,0.286,1.4l-4.622,6.998l0.337,0.223l2.618-3.963c0.194-0.294,0.516-0.454,0.844-0.454
		c0.191,0,0.385,0.054,0.556,0.167c0.466,0.307,0.594,0.935,0.119,1.653l-4.622,6.998c-0.893,1.351-2.613,2.152-4.435,2.152
		c-1.137,0-2.313-0.312-3.352-0.998c-2.701-1.785-3.444-5.419-1.66-8.121l0,0l2.618-3.963c0.257-0.388,0.509-0.53,0.76-0.53
		c0.214,0,0.426,0.103,0.64,0.244c0.466,0.308,0.594,0.934,0.286,1.4l-2.172,3.288l0.337,0.223l6.015-9.106
		C13,7.838,13.322,7.679,13.65,7.679 M13.65,7.123c-0.528,0-1.017,0.263-1.308,0.703l-3.12,4.724
		c-0.119-0.278-0.317-0.516-0.576-0.686c-0.219-0.144-0.555-0.336-0.947-0.336c-0.47,0-0.882,0.262-1.224,0.78L3.858,16.27
		c-1.949,2.952-1.133,6.941,1.818,8.891c1.08,0.713,2.345,1.09,3.658,1.09c2.042,0,3.919-0.92,4.899-2.401l4.623-6.998
		c0.297-0.449,0.429-0.915,0.382-1.347c-0.048-0.446-0.282-0.828-0.659-1.076c-0.256-0.169-0.552-0.259-0.858-0.26l1.283-1.942
		c0.231-0.349,0.311-0.767,0.228-1.177c-0.084-0.41-0.322-0.763-0.672-0.993c-0.257-0.169-0.554-0.259-0.861-0.26
		c0.191-0.332,0.254-0.717,0.177-1.095c-0.084-0.41-0.322-0.763-0.671-0.994c-0.257-0.17-0.555-0.259-0.862-0.259
		c-0.496,0-0.957,0.232-1.253,0.624c-0.119-0.28-0.318-0.518-0.577-0.69C14.256,7.213,13.957,7.123,13.65,7.123L13.65,7.123z"/>
</g>
<g>
	<path d="M7.309,27.478c-2.888,0-5.415-2.064-6.01-4.909l-0.973-4.655c-0.09-0.432-0.052-0.767,0.116-1.023
		c0.214-0.326,0.582-0.438,0.878-0.499c0.085-0.018,0.172-0.026,0.258-0.026c0.389,0,0.747,0.179,0.987,0.464l-1.303-6.235
		c-0.071-0.338-0.006-0.683,0.183-0.971C1.633,9.336,1.921,9.14,2.257,9.071c0.085-0.018,0.173-0.026,0.26-0.026
		c0.388,0,0.746,0.178,0.985,0.463l-0.123-0.59C3.308,8.58,3.373,8.234,3.562,7.946C3.75,7.66,4.037,7.464,4.372,7.395
		c0.085-0.018,0.172-0.026,0.259-0.026c0.606,0,1.137,0.433,1.262,1.029l0.124,0.59c0.035-0.119,0.088-0.233,0.158-0.34
		c0.188-0.286,0.476-0.482,0.811-0.551C7.071,8.079,7.158,8.07,7.245,8.07c0.606,0,1.137,0.433,1.262,1.03l0.62,2.966
		c0.036-0.119,0.089-0.234,0.159-0.34c0.188-0.286,0.476-0.482,0.811-0.551c0.083-0.017,0.168-0.026,0.251-0.026
		c0.509,0,1.127,0.348,1.332,1.326l1.718,8.221c0.264,1.264-0.049,2.694-0.858,3.927c-0.92,1.4-2.376,2.396-3.996,2.729
		C8.136,27.436,7.721,27.478,7.309,27.478L7.309,27.478z"/>
	<path style="fill:#FFFFFF;" d="M4.632,7.647c0.468,0,0.889,0.33,0.989,0.808l1.842,8.815l0.394-0.081L6.264,9.563
		C6.149,9.016,6.498,8.481,7.042,8.369C7.11,8.355,7.178,8.349,7.245,8.349c0.468,0,0.889,0.33,0.989,0.808l1.718,8.22l0.394-0.081
		l-0.973-4.655c-0.114-0.547,0.234-1.081,0.778-1.193c0.065-0.013,0.131-0.02,0.195-0.02c0.472,0,0.904,0.362,1.059,1.105
		l1.718,8.22c0.538,2.579-1.482,5.676-4.638,6.327c-0.395,0.081-0.789,0.12-1.177,0.12c-2.716,0-5.157-1.912-5.738-4.688l0,0
		l-0.973-4.655c-0.176-0.844,0.234-1.081,0.778-1.193c0.068-0.014,0.136-0.021,0.203-0.021c0.468,0,0.889,0.33,0.989,0.808
		l0.807,3.862l0.394-0.081L1.534,10.537C1.42,9.99,1.768,9.455,2.313,9.343c0.068-0.014,0.136-0.021,0.203-0.021
		c0.468,0,0.889,0.33,0.989,0.808l1.594,7.626l0.394-0.081L3.651,8.861C3.536,8.314,3.885,7.78,4.429,7.668
		C4.497,7.654,4.565,7.647,4.632,7.647 M4.632,7.091C4.632,7.091,4.632,7.091,4.632,7.091C4.632,7.091,4.632,7.091,4.632,7.091
		c-0.105,0-0.211,0.011-0.315,0.032C3.909,7.207,3.558,7.445,3.329,7.794C3.118,8.116,3.034,8.497,3.089,8.877
		c-0.179-0.071-0.372-0.11-0.573-0.11c-0.105,0-0.211,0.011-0.315,0.032C1.793,8.883,1.442,9.121,1.213,9.469
		c-0.23,0.35-0.309,0.77-0.223,1.181l1.159,5.546c-0.178-0.07-0.37-0.109-0.57-0.109c-0.105,0-0.212,0.011-0.315,0.032
		c-0.322,0.066-0.781,0.203-1.054,0.618c-0.211,0.322-0.262,0.725-0.156,1.233l0.973,4.655c0.622,2.973,3.265,5.13,6.283,5.13
		c0.431,0,0.864-0.044,1.289-0.132c1.692-0.349,3.213-1.388,4.173-2.85c0.849-1.293,1.176-2.8,0.897-4.135l-1.718-8.221
		c-0.238-1.141-0.985-1.547-1.604-1.547c-0.102,0-0.205,0.011-0.307,0.032c-0.301,0.062-0.572,0.208-0.784,0.421L8.779,9.043
		C8.627,8.319,7.982,7.793,7.245,7.793c-0.105,0-0.211,0.011-0.315,0.032C6.627,7.887,6.356,8.034,6.143,8.248
		C5.958,7.572,5.337,7.091,4.632,7.091L4.632,7.091L4.632,7.091z"/>
</g>
<polygon points="9.346,3.393 7.658,0 11.034,0 "/>
<polygon points="6.539,4.051 2.946,2.845 5.333,0.458 "/>
<polygon points="12.153,4.051 15.746,2.845 13.359,0.458 "/>
</svg>
