<?xml version="1.0" encoding="iso-8859-1"?>
<!-- Generator: Adobe Illustrator 17.1.0, SVG Export Plug-In . SVG Version: 6.00 Build 0)  -->
<!DOCTYPE svg PUBLIC "-//W3C//DTD SVG 1.1//EN" "http://www.w3.org/Graphics/SVG/1.1/DTD/svg11.dtd">
<svg version="1.1" id="Layer_1" xmlns="http://www.w3.org/2000/svg" xmlns:xlink="http://www.w3.org/1999/xlink" x="0px" y="0px"
	 viewBox="0 0 16.882 30.595" style="enable-background:new 0 0 16.882 30.595;" xml:space="preserve">
<g id="Your_Icon_1_">
	<path style="fill:none;stroke:#000000;stroke-miterlimit:10;" d="M8.784,17.385c-0.035-0.395,0.756-3.209-0.31-5.849
		c0,0,0.078-0.366-0.04-0.732C8.316,10.44,7.099,7.594,6.899,5.7c-0.202-1.894-0.24-2.801-0.24-2.801s0.592-0.43-0.12-1.654
		c0,0,0.475-0.745-0.076-0.745H3.074c-0.552,0-0.078,0.745-0.078,0.745c-0.71,1.224-0.118,1.69-0.118,1.69s-0.04,0.889-0.24,2.785
		c-0.202,1.894-1.417,4.727-1.535,5.095c-0.118,0.364-0.04,0.727-0.04,0.727c-1.067,2.639-0.277,5.452-0.311,5.845
		c-0.036,0.395,0.352,2.88,0.628,4.892c0.275,2.013-0.395,3.388-0.592,4.65c-0.198,1.262,0.492,2.872,0.492,2.872h0.026
		c0.198,0,1.665,0.293,3.448,0.293c1.78,0,3.246-0.293,3.446-0.293h0.058c0,0,0.692-1.61,0.494-2.872
		c-0.197-1.262-0.869-2.601-0.592-4.615C8.434,20.301,8.82,17.778,8.784,17.385z"/>
</g>
<path d="M16.538,30.361c0.217-0.146,0.344-0.377,0.344-0.619c0-0.127-0.04-0.25-0.107-0.353l-0.049-0.071
	c-0.954-1.419-3.448-5.107-5.945-8.71c-3.08-4.448-4.537-6.421-5.264-7.306c0-0.016,0.011-0.031,0.011-0.049
	c0-0.159-0.051-0.317-0.146-0.455c-0.23-0.339-0.656-0.452-0.951-0.251c-0.167,0.115-0.264,0.304-0.264,0.524
	c0,0.153,0.051,0.319,0.144,0.455c0.104,0.151,0.255,0.251,0.419,0.306c0.539,0.969,1.814,3.027,4.85,7.577
	c2.399,3.601,4.923,7.297,5.9,8.717l0.065,0.098C15.752,30.528,16.197,30.592,16.538,30.361z"/>
</svg>
