<?xml version="1.0" encoding="iso-8859-1"?>
<!-- Generator: Adobe Illustrator 17.1.0, SVG Export Plug-In . SVG Version: 6.00 Build 0)  -->
<!DOCTYPE svg PUBLIC "-//W3C//DTD SVG 1.1//EN" "http://www.w3.org/Graphics/SVG/1.1/DTD/svg11.dtd">
<svg version="1.1" id="Layer_1" xmlns="http://www.w3.org/2000/svg" xmlns:xlink="http://www.w3.org/1999/xlink" x="0px" y="0px"
	 viewBox="0 0 26.047 18.009" style="enable-background:new 0 0 26.047 18.009;" xml:space="preserve">
<g>
	<path d="M25.5,3.97c-0.115-0.479-0.247-0.925-0.392-1.333c-0.145-0.407-0.304-0.776-0.475-1.1C24.121,0.567,23.505,0,22.84,0
		l-0.007,0.001c-0.02,0-0.039,0.007-0.059,0.008V0.005H22.28V0l-1.526,0c-0.011,0-0.022,0.004-0.022,0.004l-1.064,0
		C19.656,0.004,19.645,0,19.633,0c-0.011,0-0.022,0.004-0.034,0.005h-0.309L19.292,0h-1.526c-0.011,0-0.022,0.004-0.034,0.005
		h-0.432V0H9.77C9.758,0,9.747,0.004,9.736,0.005h-0.07v0.01v0C9.02,0.073,8.422,0.663,7.927,1.641
		C7.927,1.642,7.926,1.643,7.926,1.644c-0.081,0.16-0.16,0.331-0.235,0.512C7.686,2.167,7.682,2.179,7.677,2.19
		c-0.071,0.172-0.14,0.351-0.205,0.54C7.464,2.754,7.456,2.781,7.448,2.805c-0.06,0.178-0.119,0.361-0.174,0.553
		C7.261,3.401,7.25,3.447,7.238,3.491C7.188,3.669,7.14,3.85,7.095,4.039C7.08,4.104,7.067,4.173,7.052,4.238
		C7.013,4.412,6.975,4.587,6.94,4.768c-0.017,0.09-0.031,0.184-0.047,0.275C6.864,5.208,6.835,5.372,6.809,5.542
		C6.792,5.659,6.778,5.781,6.762,5.9c-0.02,0.152-0.041,0.302-0.058,0.457C6.688,6.502,6.677,6.653,6.663,6.801
		c-0.012,0.136-0.027,0.27-0.037,0.408c-0.013,0.187-0.022,0.379-0.031,0.57C6.591,7.884,6.583,7.987,6.579,8.093
		c-0.011,0.3-0.016,0.604-0.016,0.912s0.006,0.612,0.016,0.912c0.004,0.106,0.012,0.209,0.017,0.314
		c0.009,0.191,0.018,0.383,0.031,0.57c0.01,0.138,0.024,0.272,0.037,0.408c0.013,0.148,0.025,0.299,0.041,0.444
		c0.017,0.157,0.039,0.308,0.059,0.461c0.015,0.118,0.029,0.238,0.046,0.354c0.007,0.044,0.014,0.087,0.021,0.131l-0.869-2.229
		c0.175-0.301,0.223-0.673,0.09-1.025L5.495,7.864C5.261,7.243,4.568,6.929,3.946,7.163C3.325,7.397,3.011,8.09,3.244,8.711
		l0.556,1.479c0.168,0.446,0.572,0.729,1.016,0.77l1.032,2.647l-5.415,1.839c-0.007,0.002-0.013,0.006-0.02,0.009
		c-0.022,0.008-0.043,0.018-0.063,0.029c-0.017,0.009-0.035,0.017-0.051,0.028c-0.018,0.011-0.035,0.024-0.051,0.037
		c-0.016,0.013-0.032,0.025-0.047,0.039c-0.015,0.014-0.028,0.03-0.042,0.045c-0.013,0.015-0.027,0.03-0.038,0.046
		c-0.013,0.017-0.023,0.036-0.034,0.055c-0.01,0.017-0.02,0.033-0.028,0.051c-0.009,0.019-0.016,0.04-0.023,0.06
		c-0.007,0.019-0.013,0.038-0.018,0.058c-0.005,0.019-0.007,0.039-0.01,0.059c-0.003,0.023-0.006,0.045-0.007,0.069
		C0.002,16.038,0,16.045,0,16.052c0,0.013,0.003,0.025,0.004,0.037c0.001,0.023,0.003,0.045,0.007,0.067
		c0.004,0.022,0.009,0.044,0.015,0.066c0.003,0.012,0.004,0.024,0.008,0.036c0.002,0.005,0.005,0.008,0.007,0.013
		c0.021,0.057,0.049,0.109,0.083,0.156c0.007,0.009,0.014,0.017,0.022,0.026c0.034,0.042,0.073,0.08,0.116,0.112
		c0.005,0.004,0.009,0.008,0.015,0.012c0.047,0.033,0.099,0.057,0.154,0.076c0.012,0.004,0.025,0.008,0.037,0.011
		c0.055,0.016,0.112,0.026,0.17,0.027l0.004,0.001l0.001,0h7.465c0.457,0.782,0.989,1.25,1.559,1.302l0,0v0.003h0.024
		C9.717,18,9.743,18.009,9.77,18.009h0h7.531v-0.011h0.386c0.027,0.002,0.052,0.011,0.079,0.011h1.526l-0.003-0.011h0.265
		c0.027,0.002,0.052,0.011,0.079,0.011c0.027,0,0.053-0.009,0.079-0.011h0.962c0.027,0.002,0.052,0.011,0.079,0.011h1.526v-0.011
		h0.481c0.027,0.002,0.052,0.011,0.079,0.011c1.771,0,3.207-4.031,3.207-9.004C26.047,7.14,25.845,5.407,25.5,3.97z M22.84,17.155
		c-0.149,0-0.346-0.125-0.56-0.37c-0.137-0.156-0.281-0.365-0.427-0.629c-0.144-0.261-0.288-0.574-0.427-0.945
		c-0.016-0.044-0.033-0.082-0.05-0.127c-0.574-1.611-0.89-3.771-0.89-6.081c0-2.31,0.316-4.47,0.89-6.081
		c0.016-0.045,0.033-0.083,0.05-0.127c0.138-0.371,0.282-0.684,0.427-0.945c0.146-0.263,0.29-0.472,0.427-0.629
		c0.215-0.245,0.411-0.37,0.56-0.37c0.35,0,0.957,0.648,1.463,2.07c0.574,1.611,0.89,3.771,0.89,6.081
		C25.194,14.278,23.639,17.155,22.84,17.155z M7.416,9.005c0-2.31,0.316-4.47,0.89-6.081c0.507-1.422,1.114-2.07,1.463-2.07h0.635
		C9.313,2.289,8.554,5.394,8.554,9.005s0.758,6.715,1.851,8.151H9.77c-0.215,0-0.484-0.214-0.763-0.62
		c-0.193-0.281-0.389-0.656-0.577-1.123C7.88,14.04,7.416,11.882,7.416,9.005z M21.427,0.932c-1.061,1.468-1.793,4.527-1.793,8.073
		s0.732,6.605,1.793,8.073v0.078h-0.673c-0.799,0-2.353-2.877-2.353-8.151s1.555-8.151,2.353-8.151h0.673V0.932z"/>
</g>
</svg>
