<?xml version="1.0" encoding="utf-8"?>
<!-- Generator: Adobe Illustrator 16.2.1, SVG Export Plug-In . SVG Version: 6.00 Build 0)  -->
<!DOCTYPE svg PUBLIC "-//W3C//DTD SVG 1.1//EN" "http://www.w3.org/Graphics/SVG/1.1/DTD/svg11.dtd">
<svg version="1.1" id="Layer_1" xmlns="http://www.w3.org/2000/svg" xmlns:xlink="http://www.w3.org/1999/xlink" x="0px" y="0px"
	 width="44.999px" height="45px" viewBox="0 0 44.999 45" enable-background="new 0 0 44.999 45" xml:space="preserve">
<path fill="#231F20" d="M34.849,21.062c0-6.809-5.54-12.349-12.349-12.349c-6.811,0-12.35,5.54-12.35,12.349
	c0,4.317,2.23,8.119,5.598,10.327c-1.023,1.722-1.889,3.193-2.323,3.938l-0.05,0.083c-0.153,0.26-0.045,0.61,0.244,0.783
	c0.185,0.109,0.399,0.124,0.58,0.039c0.094-0.044,0.17-0.116,0.224-0.202l0.034-0.062c0.443-0.739,1.32-2.213,2.348-3.959
	c1.705,0.892,3.641,1.403,5.695,1.403c2.169,0,4.207-0.566,5.98-1.553c0.471,1.07,0.861,1.954,1.096,2.481l0.039,0.089
	c0.121,0.276,0.469,0.394,0.778,0.258c0.196-0.085,0.333-0.252,0.37-0.446c0.02-0.104,0.005-0.207-0.034-0.301l-0.028-0.064
	c-0.242-0.558-0.66-1.517-1.168-2.676C32.74,28.968,34.849,25.259,34.849,21.062z M28.707,29.324
	c-0.472-1.065-0.979-2.208-1.491-3.347c-1.815-4.039-2.693-5.844-3.146-6.665c0.002-0.014,0.012-0.023,0.016-0.038
	c0.023-0.128,0.006-0.263-0.049-0.388c-0.136-0.307-0.461-0.462-0.729-0.345c-0.152,0.066-0.258,0.206-0.291,0.383
	c-0.023,0.123-0.006,0.264,0.048,0.388c0.062,0.138,0.168,0.24,0.291,0.31c0.29,0.859,1.009,2.707,2.772,6.821
	c0.52,1.214,1.051,2.44,1.543,3.569c-1.523,0.885-3.287,1.399-5.172,1.399c-1.687,0-3.274-0.413-4.683-1.132
	c0.337-0.577,0.679-1.162,1.02-1.751c2.221-3.831,3.174-5.599,3.577-6.445c0.012-0.006,0.027-0.003,0.039-0.009
	c0.119-0.056,0.218-0.148,0.287-0.268c0.172-0.288,0.106-0.643-0.146-0.792c-0.144-0.084-0.317-0.089-0.479-0.012
	c-0.113,0.053-0.219,0.148-0.287,0.265c-0.076,0.13-0.099,0.276-0.082,0.417c-0.529,0.737-1.609,2.399-3.92,6.233
	c-0.354,0.587-0.707,1.175-1.056,1.756c-2.782-1.857-4.62-5.022-4.62-8.612c0-5.706,4.643-10.349,10.35-10.349
	c5.706,0,10.349,4.643,10.349,10.349C32.849,24.439,31.216,27.435,28.707,29.324z"/>
</svg>
