<?xml version="1.0" encoding="utf-8"?>
<!-- Generator: Adobe Illustrator 16.2.1, SVG Export Plug-In . SVG Version: 6.00 Build 0)  -->
<!DOCTYPE svg PUBLIC "-//W3C//DTD SVG 1.1//EN" "http://www.w3.org/Graphics/SVG/1.1/DTD/svg11.dtd">
<svg version="1.1" id="Layer_1" xmlns="http://www.w3.org/2000/svg" xmlns:xlink="http://www.w3.org/1999/xlink" x="0px" y="0px"
	 width="44.999px" height="45px" viewBox="0 0 44.999 45" enable-background="new 0 0 44.999 45" xml:space="preserve">
<path d="M30.833,36.591l-0.05-0.072c-0.955-1.418-3.447-5.105-5.945-8.709c-0.58-0.838-1.102-1.586-1.572-2.258
	c0.063-0.529,0.089-0.846,0.075-0.994c0-0.076,0.024-0.219,0.054-0.412c0.147-0.986,0.488-3.273-0.349-5.467
	c0.02-0.186,0.026-0.502-0.078-0.826c-0.021-0.068-0.078-0.215-0.158-0.42c-0.358-0.922-1.196-3.082-1.355-4.582
	c-0.146-1.373-0.207-2.229-0.229-2.582c0.199-0.299,0.398-0.885-0.063-1.822c0.11-0.25,0.194-0.588,0.035-0.877
	c-0.06-0.111-0.247-0.367-0.678-0.367h-3.388c-0.431,0-0.618,0.256-0.678,0.367c-0.159,0.289-0.076,0.627,0.033,0.877
	c-0.465,0.945-0.259,1.549-0.062,1.852c-0.021,0.348-0.082,1.195-0.228,2.572c-0.159,1.492-0.993,3.639-1.35,4.557
	c-0.083,0.215-0.143,0.367-0.164,0.436c-0.104,0.324-0.098,0.637-0.078,0.822c-0.84,2.195-0.498,4.482-0.35,5.469
	c0.028,0.191,0.053,0.332,0.054,0.389c-0.029,0.318,0.1,1.275,0.4,3.381l0.23,1.625c0.184,1.342-0.089,2.402-0.329,3.338
	c-0.104,0.408-0.203,0.793-0.262,1.168c-0.218,1.389,0.496,3.076,0.526,3.148l0.165,0.285l0.31,0.018
	c0.052,0.002,0.159,0.02,0.312,0.041c0.576,0.082,1.773,0.252,3.146,0.252c1.368,0,2.565-0.17,3.141-0.252
	c0.155-0.021,0.264-0.039,0.364-0.041h0.329l0.13-0.303c0.031-0.072,0.747-1.76,0.528-3.148c-0.06-0.379-0.158-0.766-0.265-1.174
	c-0.25-0.963-0.509-1.961-0.326-3.295l0.203-1.445c0.025-0.182,0.049-0.342,0.072-0.51c0.209,0.316,0.424,0.639,0.652,0.982
	c2.398,3.6,4.923,7.295,5.899,8.717l0.065,0.098c0.208,0.303,0.652,0.367,0.993,0.137c0.217-0.146,0.344-0.377,0.344-0.619
	C30.939,36.815,30.899,36.694,30.833,36.591z M22.405,23.997c-0.018,0.117-0.028,0.197-0.039,0.279
	c-1.459-2.057-2.296-3.168-2.792-3.773c0-0.016,0.011-0.029,0.011-0.049c0-0.158-0.051-0.316-0.146-0.455
	c-0.229-0.338-0.656-0.451-0.951-0.25c-0.168,0.113-0.264,0.303-0.264,0.523c0,0.152,0.051,0.318,0.144,0.455
	c0.104,0.152,0.256,0.252,0.419,0.307c0.441,0.793,1.377,2.316,3.364,5.336c-0.071,0.525-0.153,1.102-0.229,1.629l-0.203,1.449
	c-0.21,1.531,0.087,2.674,0.349,3.684c0.097,0.373,0.19,0.729,0.244,1.078c0.129,0.816-0.183,1.844-0.354,2.324
	c-0.045,0.008-0.096,0.014-0.149,0.021l-3,0.242c-1.301,0-2.452-0.164-3.005-0.242c-0.039-0.006-0.075-0.012-0.11-0.016
	c-0.171-0.48-0.484-1.51-0.355-2.332c0.054-0.346,0.146-0.699,0.242-1.074c0.263-1.023,0.561-2.186,0.351-3.721L15.7,27.78
	c-0.184-1.285-0.413-2.883-0.395-3.148c0.012-0.137-0.014-0.311-0.062-0.627c-0.15-1.004-0.463-3.092,0.339-5.072l0.055-0.143
	l-0.029-0.146c0-0.002-0.047-0.246,0.027-0.475c0.02-0.061,0.071-0.193,0.145-0.381c0.37-0.953,1.238-3.188,1.411-4.812
	c0.199-1.889,0.241-2.777,0.242-2.814l0.037-0.234l-0.202-0.16c-0.085-0.092-0.149-0.436,0.218-1.068l0.152-0.262L17.49,8.202h2.669
	l-0.147,0.236l0.151,0.26c0.373,0.641,0.292,0.955,0.259,0.998l-0.217,0.158l0.011,0.268c0.002,0.039,0.043,0.945,0.244,2.834
	c0.173,1.633,1.045,3.879,1.418,4.838c0.069,0.18,0.12,0.309,0.139,0.365c0.073,0.229,0.026,0.475,0.026,0.475l-0.031,0.15
	l0.057,0.143C22.867,20.905,22.556,22.993,22.405,23.997z"/>
</svg>
