<?xml version="1.0" encoding="iso-8859-1"?>
<!-- Generator: Adobe Illustrator 17.1.0, SVG Export Plug-In . SVG Version: 6.00 Build 0)  -->
<!DOCTYPE svg PUBLIC "-//W3C//DTD SVG 1.1//EN" "http://www.w3.org/Graphics/SVG/1.1/DTD/svg11.dtd">
<svg version="1.1" id="Layer_1" xmlns="http://www.w3.org/2000/svg" xmlns:xlink="http://www.w3.org/1999/xlink" x="0px" y="0px"
	 viewBox="0 0 18.872 18.009" style="enable-background:new 0 0 18.872 18.009;" xml:space="preserve">
<g>
	<path d="M18.475,3.97c-0.084-0.479-0.179-0.925-0.284-1.333c-0.105-0.407-0.22-0.776-0.344-1.1C17.476,0.567,17.029,0,16.548,0
		l-0.005,0.001c-0.014,0-0.028,0.007-0.042,0.008V0.005h-0.358V0l-1.106,0c-0.008,0-0.016,0.004-0.016,0.004l-0.771,0
		C14.241,0.004,14.233,0,14.225,0S14.209,0.004,14.2,0.005h-0.224L13.978,0h-1.106c-0.008,0-0.016,0.004-0.024,0.005h-0.313V0H7.078
		C7.07,0,7.062,0.004,7.054,0.005H7.003v0.01v0c-0.468,0.058-0.901,0.648-1.26,1.627c0,0.001-0.001,0.002-0.001,0.003
		c-0.059,0.16-0.116,0.331-0.17,0.512C5.569,2.167,5.566,2.179,5.562,2.19C5.511,2.361,5.461,2.541,5.414,2.73
		C5.408,2.754,5.402,2.781,5.396,2.805C5.352,2.984,5.31,3.167,5.27,3.358C5.261,3.401,5.253,3.447,5.244,3.491
		C5.208,3.669,5.173,3.85,5.141,4.039C5.13,4.104,5.12,4.173,5.11,4.238c-0.028,0.174-0.056,0.348-0.081,0.53
		c-0.012,0.09-0.023,0.184-0.034,0.275C4.973,5.208,4.952,5.372,4.933,5.542C4.921,5.659,4.911,5.781,4.9,5.9
		C4.885,6.052,4.87,6.202,4.857,6.357c-0.012,0.145-0.02,0.295-0.029,0.443c-0.009,0.136-0.019,0.27-0.027,0.408
		c-0.01,0.187-0.016,0.379-0.022,0.57C4.775,7.884,4.769,7.987,4.767,8.093c-0.008,0.3-0.012,0.604-0.012,0.912
		s0.004,0.612,0.012,0.912c0.003,0.106,0.008,0.209,0.012,0.314c0.007,0.191,0.013,0.383,0.022,0.57
		c0.007,0.138,0.018,0.272,0.027,0.408c0.01,0.148,0.018,0.299,0.029,0.444C4.87,11.809,4.885,11.96,4.9,12.113
		c0.011,0.118,0.021,0.238,0.033,0.354c0.005,0.044,0.01,0.087,0.015,0.131l-0.63-2.229c0.127-0.301,0.161-0.673,0.066-1.025
		L3.981,7.864C3.812,7.243,3.309,6.929,2.859,7.163C2.409,7.397,2.181,8.09,2.351,8.711l0.403,1.479
		c0.121,0.446,0.415,0.729,0.736,0.77l0.748,2.647l-3.923,1.839C0.31,15.449,0.305,15.453,0.3,15.455
		c-0.016,0.008-0.031,0.018-0.046,0.029c-0.013,0.009-0.025,0.017-0.037,0.028c-0.013,0.011-0.025,0.024-0.037,0.037
		c-0.012,0.013-0.023,0.025-0.034,0.039c-0.011,0.014-0.021,0.03-0.03,0.045c-0.01,0.015-0.019,0.03-0.028,0.046
		c-0.009,0.017-0.017,0.036-0.024,0.055c-0.007,0.017-0.014,0.033-0.02,0.051c-0.006,0.019-0.011,0.04-0.016,0.06
		c-0.005,0.019-0.01,0.038-0.013,0.058c-0.003,0.019-0.005,0.039-0.007,0.059c-0.002,0.023-0.004,0.045-0.005,0.069
		C0.001,16.038,0,16.045,0,16.052c0,0.013,0.002,0.025,0.003,0.037c0.001,0.023,0.002,0.045,0.005,0.067
		c0.003,0.022,0.007,0.044,0.011,0.066c0.002,0.012,0.003,0.024,0.006,0.036c0.001,0.005,0.004,0.008,0.005,0.013
		c0.015,0.057,0.035,0.109,0.06,0.156c0.005,0.009,0.01,0.017,0.016,0.026c0.025,0.042,0.053,0.08,0.084,0.112
		c0.004,0.004,0.007,0.008,0.011,0.012c0.034,0.033,0.072,0.057,0.111,0.076c0.009,0.004,0.018,0.008,0.027,0.011
		c0.04,0.016,0.081,0.026,0.124,0.027l0.003,0.001l0.001,0h5.409c0.331,0.782,0.717,1.25,1.13,1.302l0,0v0.003h0.018
		C7.04,18,7.059,18.009,7.078,18.009h0h5.456v-0.011h0.28c0.019,0.002,0.038,0.011,0.057,0.011h1.106l-0.002-0.011h0.192
		c0.019,0.002,0.038,0.011,0.057,0.011s0.038-0.009,0.057-0.011h0.697c0.019,0.002,0.038,0.011,0.057,0.011h1.106v-0.011h0.349
		c0.019,0.002,0.038,0.011,0.057,0.011c1.283,0,2.323-4.031,2.323-9.004C18.872,7.14,18.725,5.407,18.475,3.97z M16.548,17.155
		c-0.108,0-0.25-0.125-0.406-0.37c-0.099-0.156-0.204-0.365-0.309-0.629c-0.105-0.261-0.209-0.574-0.309-0.945
		c-0.012-0.044-0.024-0.082-0.036-0.127c-0.416-1.611-0.645-3.771-0.645-6.081c0-2.31,0.229-4.47,0.645-6.081
		c0.012-0.045,0.024-0.083,0.036-0.127c0.1-0.371,0.205-0.684,0.309-0.945c0.106-0.263,0.21-0.472,0.309-0.629
		c0.155-0.245,0.298-0.37,0.406-0.37c0.253,0,0.693,0.648,1.06,2.07c0.416,1.611,0.645,3.771,0.645,6.081
		C18.253,14.278,17.127,17.155,16.548,17.155z M5.373,9.005c0-2.31,0.229-4.47,0.645-6.081c0.367-1.422,0.807-2.07,1.06-2.07h0.46
		C6.747,2.289,6.198,5.394,6.198,9.005s0.549,6.715,1.341,8.151h-0.46c-0.155,0-0.351-0.214-0.553-0.62
		c-0.14-0.281-0.282-0.656-0.418-1.123C5.709,14.04,5.373,11.882,5.373,9.005z M15.524,0.932c-0.769,1.468-1.299,4.527-1.299,8.073
		s0.53,6.605,1.299,8.073v0.078h-0.487c-0.579,0-1.705-2.877-1.705-8.151s1.126-8.151,1.705-8.151h0.487V0.932z"/>
</g>
<ellipse cx="16.592" cy="9.011" rx="1.938" ry="8.575"/>
<ellipse style="fill:#FFFFFF;" cx="16.444" cy="13.911" rx="0.543" ry="2.105"/>
</svg>
