<?xml version="1.0" encoding="utf-8"?>
<!-- Generator: Adobe Illustrator 16.2.1, SVG Export Plug-In . SVG Version: 6.00 Build 0)  -->
<!DOCTYPE svg PUBLIC "-//W3C//DTD SVG 1.1//EN" "http://www.w3.org/Graphics/SVG/1.1/DTD/svg11.dtd">
<svg version="1.1" id="Layer_1" xmlns="http://www.w3.org/2000/svg" xmlns:xlink="http://www.w3.org/1999/xlink" x="0px" y="0px"
	 width="44.999px" height="45px" viewBox="0 0 44.999 45" enable-background="new 0 0 44.999 45" xml:space="preserve">
<g>
	<path d="M28.038,18.79c-0.051-0.099-0.582-1.121-0.84-1.63c-0.264-0.526-0.174-0.642-0.172-0.645h0.002l0.078-0.34l-0.014-0.023
		c0.016,0.015,0.016,0.023,0.016,0.023s0.293-0.275-0.176-0.467c-0.246-0.102-1.074-0.174-2.01-0.221l1.434-0.918
		c0.141-0.09,0.182-0.276,0.092-0.416c-0.09-0.141-0.277-0.182-0.416-0.092l-2.168,1.385c-0.514-0.015-1.01-0.023-1.41-0.023
		c-1.416,0-4.006,0.092-4.477,0.285c-0.473,0.191-0.174,0.469-0.174,0.469l0.076,0.332c0,0.003,0,0.005,0,0.005
		c0.221,0.22-0.125,0.552-0.17,0.646c-0.264,0.535-0.85,1.648-0.85,1.648h0.002L16.86,18.81l-0.078,0.401V35.15l0.02,0.4l0.17,0.083
		c-0.148-0.049-0.17-0.083-0.17-0.083s0.068,0.316,0.863,0.575l0.414,0.523l0.332,0.521c0,0-0.031,0.33,4.043,0.33
		c0.033,0,0.061,0,0.094,0h0.002h0.004c3.971-0.006,3.947-0.33,3.947-0.33l0.332-0.521l0.764-0.658
		c0.469-0.222,0.51-0.438,0.51-0.438V35.15V19.211L28.05,18.81L28.038,18.79z M18.089,36.651l0.199,0.038
		C18.167,36.668,18.099,36.653,18.089,36.651z M24.708,32.451c-0.041,0.436-0.1,0.865-0.205,1.388
		c-0.105,0.515-0.256,1.12-0.432,1.718c-0.482,0.01-1.014,0.016-1.617,0.016c-0.258,0-0.492-0.002-0.727-0.004
		c0.354-0.764,0.65-1.555,0.887-2.365c0.24-0.813,0.418-1.646,0.529-2.4c0.113-0.751,0.16-1.424,0.168-2.01
		s-0.029-1.088-0.088-1.567c-0.062-0.478-0.154-0.937-0.299-1.426c-0.145-0.491-0.346-1.011-0.719-1.736
		c-0.371-0.726-0.916-1.655-1.238-2.335c-0.32-0.679-0.422-1.111-0.494-1.533c-0.072-0.414-0.117-0.82-0.139-1.229
		c0.486-0.014,1.023-0.021,1.605-0.023c-0.068,0.228-0.123,0.459-0.162,0.646c-0.037,0.188-0.057,0.328-0.068,0.476
		c-0.014,0.146-0.018,0.296-0.018,0.446c0.002,0.432,0.037,0.863,0.096,1.309s0.141,0.906,0.445,1.646s0.832,1.761,1.236,2.605
		c0.402,0.842,0.678,1.51,0.863,2.084c0.188,0.573,0.279,1.055,0.34,1.535s0.092,0.959,0.096,1.42
		C24.772,31.574,24.749,32.015,24.708,32.451z"/>
	<polygon points="24.382,7.5 20.618,7.5 22.499,11.283 	"/>
	<polygon points="18.024,8.01 15.364,10.672 19.37,12.016 	"/>
	<polygon points="26.974,8.01 25.63,12.016 29.636,10.672 	"/>
</g>
</svg>
