<?xml version="1.0" encoding="utf-8"?>
<!-- Generator: Adobe Illustrator 16.2.1, SVG Export Plug-In . SVG Version: 6.00 Build 0)  -->
<!DOCTYPE svg PUBLIC "-//W3C//DTD SVG 1.1//EN" "http://www.w3.org/Graphics/SVG/1.1/DTD/svg11.dtd">
<svg version="1.1" id="Layer_1" xmlns="http://www.w3.org/2000/svg" xmlns:xlink="http://www.w3.org/1999/xlink" x="0px" y="0px"
	 width="44.999px" height="45px" viewBox="0 0 44.999 45" enable-background="new 0 0 44.999 45" xml:space="preserve">
<path d="M27.089,13.657c-1.071-0.217-2.424-0.536-4.647-0.539c-2.189-0.004-3.766,0.382-4.549,0.545
	c-4.768,0.97-8.148,3.408-8.148,6.261c0,1.083,0.488,2.104,1.354,3.008c1.854,1.946,5.447,3.348,9.703,3.647
	c0.228,0.017,0.466,0.015,0.697,0.024v4.278c0,0.553,0.447,1,1,1s1-0.447,1-1V26.62c0.001,0,0.002,0,0.003,0
	c4.561-0.189,8.445-1.638,10.397-3.688c0.864-0.903,1.355-1.925,1.355-3.008C35.255,17.064,31.865,14.626,27.089,13.657z
	 M22.5,17.87c-0.354,0-0.643-0.166-0.643-0.37s0.288-0.37,0.643-0.37c0.354,0,0.641,0.166,0.641,0.37S22.854,17.87,22.5,17.87z
	 M23.535,19.253c0.782,0.032,1.541,0.104,2.273,0.208C25.076,19.357,24.314,19.285,23.535,19.253z"/>
</svg>
