<?xml version="1.0" encoding="iso-8859-1"?>
<!-- Generator: Adobe Illustrator 17.1.0, SVG Export Plug-In . SVG Version: 6.00 Build 0)  -->
<!DOCTYPE svg PUBLIC "-//W3C//DTD SVG 1.1//EN" "http://www.w3.org/Graphics/SVG/1.1/DTD/svg11.dtd">
<svg version="1.1" id="Layer_1" xmlns="http://www.w3.org/2000/svg" xmlns:xlink="http://www.w3.org/1999/xlink" x="0px" y="0px"
	 viewBox="0 0 14.083 25.592" style="enable-background:new 0 0 14.083 25.592;" xml:space="preserve">
<path style="fill:none;stroke:#000000;stroke-miterlimit:10;" d="M11.828,24.401c0,0,0.854-0.154,0.372-3.691
	c-0.483-3.537-3.194-6.766-3.194-6.766V13.06h0.483v-0.154l-0.446-0.192H8.857v-0.23h0.52v-0.461c0,0,0-0.923,0-1.807
	s-0.52-0.807-0.52-0.807H7.52H7.112H5.774c0,0-0.52-0.077-0.52,0.807c0,0.884,0,1.807,0,1.807v0.461h0.52v0.231H5.589l-0.446,0.192
	v0.154h0.483v0.884c0,0-2.711,3.23-3.194,6.766c-0.483,3.537,0.372,3.691,0.372,3.691"/>
<rect x="5.598" y="9.238" width="3.469" height="4.315"/>
<path style="fill:none;stroke:#000000;stroke-miterlimit:10;" d="M6.098,5.772c-3.068,0-5.555-1.18-5.555-2.636S3.03,0.5,6.098,0.5
	s5.555,1.18,5.555,2.636c0,0.142-0.024,0.281-0.069,0.417"/>
<polyline style="fill:none;stroke:#000000;stroke-miterlimit:10;" points="3.916,4.001 6.358,5.754 3.798,7.624 "/>
<g>
	<path style="fill:none;stroke:#000000;stroke-miterlimit:10;" d="M0,23.092c2.346,0,2.346,2,4.692,2c2.348,0,2.348-2,4.696-2
		s2.348,2,4.696,2"/>
</g>
</svg>
