<?xml version="1.0" encoding="iso-8859-1"?>
<!-- Generator: Adobe Illustrator 17.1.0, SVG Export Plug-In . SVG Version: 6.00 Build 0)  -->
<!DOCTYPE svg PUBLIC "-//W3C//DTD SVG 1.1//EN" "http://www.w3.org/Graphics/SVG/1.1/DTD/svg11.dtd">
<svg version="1.1" id="Layer_1" xmlns="http://www.w3.org/2000/svg" xmlns:xlink="http://www.w3.org/1999/xlink" x="0px" y="0px"
	 viewBox="0 0 14.273 30" style="enable-background:new 0 0 14.273 30;" xml:space="preserve">
<g>
	<g>
		<path d="M7.987,8.938c-0.1,0-0.197-0.049-0.255-0.139c-0.09-0.141-0.049-0.327,0.092-0.417l2.845-1.819
			c0.14-0.09,0.327-0.048,0.417,0.092c0.09,0.141,0.049,0.327-0.092,0.417L8.149,8.89C8.099,8.922,8.042,8.938,7.987,8.938z"/>
	</g>
	<g>
		<polygon points="12.744,27.651 12.744,28.053 11.47,29.15 7.187,30 2.716,29.15 2.111,28.383 1.439,28.052 1.42,27.651 
			1.42,11.712 1.498,11.31 2.347,9.702 2.708,9.124 2.518,9.016 2.44,8.678 2.51,8.454 7.091,7.925 11.576,8.372 11.744,8.677 
			11.665,9.016 11.535,9.195 12.686,11.31 12.744,11.712 		"/>
	</g>
	<g>
		<g id="Layer_2_2_">
			<g>
				<path d="M7.091,8.301c4.744,0.019,4.654,0.376,4.654,0.376s0.295-0.276-0.175-0.469C11.098,8.016,8.51,7.925,7.091,7.925
					c-1.416,0-4.006,0.09-4.477,0.283C2.142,8.401,2.44,8.678,2.44,8.678S2.347,8.321,7.091,8.301"/>
			</g>
			<g>
				<path d="M7.091,8.672c4.744,0.02,4.574,0.344,4.574,0.344s-0.096,0.112,0.17,0.645c0.27,0.534,0.85,1.648,0.85,1.648
					s-1.867-0.252-5.595-0.232c-3.748-0.02-3.708-0.023-5.593,0.232c0,0,0.584-1.115,0.849-1.648
					c0.045-0.093,0.391-0.427,0.171-0.645C2.518,9.016,2.347,8.691,7.091,8.672"/>
			</g>
			<g>
				<path d="M7.091,28.073c5.448,0,5.653-0.422,5.653-0.422l0.019-15.939c0,0-1.945-0.291-5.673-0.27
					c-3.723-0.021-5.671,0.27-5.671,0.27l0.019,15.939C1.439,27.651,1.645,28.073,7.091,28.073"/>
			</g>
			<g>
				<path d="M7.091,29.011c-3.023,0-4.538-0.309-4.538-0.309c-1.041-0.268-1.113-0.65-1.113-0.65s0.206,0.423,5.652,0.423
					c5.448,0,5.653-0.422,5.653-0.422s-0.071,0.381-1.112,0.65C11.632,28.703,10.117,29.011,7.091,29.011"/>
			</g>
			<g>
				<path d="M7.091,30c-4.074,0-4.043-0.33-4.043-0.33L2.716,29.15c0,0,1.351,0.314,4.374,0.314c3.027,0,4.379-0.314,4.379-0.314
					l-0.332,0.521C11.138,29.67,11.167,30,7.091,30"/>
			</g>
		</g>
		<g>
			<path style="fill:#FFFFFF;" d="M5.605,14.229c0.322,0.679,0.867,1.609,1.239,2.335c0.373,0.725,0.573,1.246,0.718,1.736
				c0.145,0.49,0.236,0.949,0.298,1.427c0.06,0.48,0.096,0.981,0.088,1.567c-0.007,0.585-0.053,1.258-0.167,2.01
				c-0.111,0.753-0.29,1.587-0.529,2.401c-0.237,0.814-0.537,1.609-0.893,2.376h2.343c0.179-0.604,0.332-1.219,0.438-1.741
				c0.106-0.522,0.165-0.952,0.206-1.388c0.041-0.436,0.063-0.877,0.059-1.339c-0.004-0.461-0.034-0.94-0.094-1.42
				c-0.062-0.48-0.153-0.962-0.34-1.536c-0.186-0.574-0.461-1.241-0.865-2.084c-0.403-0.844-0.93-1.865-1.235-2.605
				c-0.305-0.741-0.388-1.201-0.446-1.648c-0.057-0.445-0.093-0.876-0.096-1.307c0-0.15,0.005-0.302,0.018-0.447
				c0.012-0.147,0.031-0.289,0.069-0.475c0.038-0.188,0.094-0.421,0.163-0.65H4.97c0.019,0.416,0.066,0.832,0.141,1.256
				C5.183,13.118,5.284,13.55,5.605,14.229z"/>
		</g>
	</g>
	<polygon points="7.136,3.783 5.254,0 9.019,0 	"/>
	<polygon points="4.006,4.517 0,3.173 2.662,0.511 	"/>
	<polygon points="10.267,4.517 14.273,3.173 11.611,0.511 	"/>
</g>
</svg>
