<?xml version="1.0" encoding="iso-8859-1"?>
<!-- Generator: Adobe Illustrator 17.1.0, SVG Export Plug-In . SVG Version: 6.00 Build 0)  -->
<!DOCTYPE svg PUBLIC "-//W3C//DTD SVG 1.1//EN" "http://www.w3.org/Graphics/SVG/1.1/DTD/svg11.dtd">
<svg version="1.1" id="Layer_1" xmlns="http://www.w3.org/2000/svg" xmlns:xlink="http://www.w3.org/1999/xlink" x="0px" y="0px"
	 viewBox="0 0 25.512 18.764" style="enable-background:new 0 0 25.512 18.764;" xml:space="preserve">
<path d="M1.355,9.814c1.853,1.947,5.447,3.348,9.703,3.647c0.555,0.041,1.12,0.06,1.695,0.06c0.34,0,0.675-0.006,1.004-0.019
	c4.561-0.189,8.445-1.638,10.398-3.688c0.864-0.904,1.355-1.924,1.355-3.008c0-2.86-3.39-5.297-8.166-6.267
	C16.274,0.323,14.921,0.004,12.698,0c-2.189-0.004-3.765,0.382-4.549,0.545C3.381,1.515,0,3.953,0,6.806
	C0,7.89,0.489,8.91,1.355,9.814z M17.558,6.608c-0.16-0.035-0.318-0.069-0.48-0.101C17.24,6.539,17.398,6.573,17.558,6.608z
	 M23.751,9.427c-0.046-0.044-0.097-0.085-0.147-0.126C23.654,9.342,23.705,9.382,23.751,9.427z M23.301,9.052
	c-0.066-0.047-0.132-0.098-0.197-0.145C23.17,8.954,23.235,9.005,23.301,9.052z M22.806,8.693c-0.075-0.05-0.156-0.098-0.233-0.148
	C22.65,8.595,22.731,8.643,22.806,8.693z M22.268,8.359c-0.086-0.054-0.175-0.101-0.265-0.151
	C22.093,8.258,22.183,8.306,22.268,8.359z M21.694,8.041c-0.096-0.05-0.195-0.097-0.296-0.148
	C21.499,7.943,21.597,7.99,21.694,8.041z M21.08,7.745c-0.105-0.05-0.213-0.094-0.322-0.142C20.867,7.65,20.975,7.694,21.08,7.745z
	 M20.431,7.471c-0.112-0.047-0.23-0.091-0.346-0.135C20.201,7.38,20.319,7.423,20.431,7.471z M19.753,7.216
	c-0.125-0.041-0.25-0.085-0.377-0.126C19.503,7.131,19.628,7.175,19.753,7.216z M19.045,6.986c-0.134-0.038-0.27-0.079-0.406-0.116
	C18.775,6.907,18.911,6.948,19.045,6.986z M18.313,6.784c-0.147-0.038-0.294-0.076-0.441-0.107
	C18.019,6.709,18.166,6.747,18.313,6.784z M13.791,6.135c0.783,0.032,1.542,0.104,2.274,0.208
	C15.332,6.239,14.572,6.167,13.791,6.135z M16.262,6.372c0.18,0.022,0.357,0.056,0.535,0.088C16.62,6.428,16.442,6.394,16.262,6.372
	z M8.6,6.479C8.436,6.507,8.271,6.542,8.109,6.573C8.271,6.542,8.436,6.507,8.6,6.479z M11.039,6.173
	c-0.191,0.016-0.382,0.032-0.57,0.051C10.657,6.205,10.848,6.189,11.039,6.173z M10.205,6.246C10.026,6.268,9.85,6.29,9.67,6.312
	C9.85,6.29,10.026,6.268,10.205,6.246z M9.394,6.35C9.221,6.375,9.052,6.4,8.881,6.431C9.052,6.4,9.221,6.375,9.394,6.35z
	 M1.75,9.433c0.044-0.041,0.097-0.079,0.143-0.12C1.846,9.354,1.794,9.392,1.75,9.433z M2.188,9.068
	C2.25,9.02,2.316,8.976,2.379,8.929C2.316,8.976,2.25,9.02,2.188,9.068z M2.671,8.718C2.746,8.668,2.82,8.62,2.895,8.576
	C2.82,8.62,2.746,8.668,2.671,8.718z M3.195,8.39C3.276,8.337,3.359,8.29,3.443,8.242C3.359,8.29,3.276,8.337,3.195,8.39z
	 M3.752,8.076C3.846,8.028,3.936,7.978,4.03,7.934C3.936,7.978,3.846,8.028,3.752,8.076z M4.346,7.783
	c0.099-0.044,0.197-0.092,0.3-0.135C4.543,7.691,4.445,7.739,4.346,7.783z M4.962,7.518C5.074,7.471,5.184,7.423,5.3,7.38
	C5.184,7.423,5.074,7.471,4.962,7.518z M5.48,7.316c0.298-0.11,0.605-0.214,0.921-0.309C6.085,7.102,5.778,7.206,5.48,7.316z
	 M6.631,6.938c0.151-0.047,0.307-0.085,0.461-0.126C6.938,6.854,6.782,6.891,6.631,6.938z M7.357,6.743
	c0.158-0.038,0.316-0.073,0.476-0.11C7.673,6.671,7.515,6.706,7.357,6.743z"/>
<ellipse style="fill:#FFFFFF;" cx="12.756" cy="4.382" rx="0.641" ry="0.37"/>
<line style="fill:none;stroke:#231F20;stroke-width:2;stroke-linecap:round;stroke-miterlimit:10;" x1="12.756" y1="7.496" x2="12.756" y2="17.764"/>
</svg>
