<?xml version="1.0" encoding="iso-8859-1"?>
<!-- Generator: Adobe Illustrator 17.1.0, SVG Export Plug-In . SVG Version: 6.00 Build 0)  -->
<!DOCTYPE svg PUBLIC "-//W3C//DTD SVG 1.1//EN" "http://www.w3.org/Graphics/SVG/1.1/DTD/svg11.dtd">
<svg version="1.1" id="Layer_1" xmlns="http://www.w3.org/2000/svg" xmlns:xlink="http://www.w3.org/1999/xlink" x="0px" y="0px"
	 viewBox="0 0 21.646 24.088" style="enable-background:new 0 0 21.646 24.088;" xml:space="preserve">
<g>
	<path d="M20.077,21.428c-0.428-0.825-2.206-2.229-2.149-3.516c0.035-0.805,0.7-1.313,1.098-1.965
		c0.539-0.883,0.902-1.872,1.197-2.86c0.343-1.151,0.539-2.423,0.573-3.622c0.061-2.109-0.44-4.446-1.592-6.236
		c-0.882-1.369-2.243-2.137-3.749-2.661c-1.866-0.651-3.93-0.681-5.87-0.398C7.752,0.439,5.647,0.936,4.103,2.009
		c-0.165,0.115-1.52,1.072-1.671,1.716c-0.073,0.31,0.002,0.627-0.043,0.939C2.326,5.1,2.091,5.485,1.95,5.897
		C1.743,6.507,1.657,7.15,1.566,7.786C1.458,8.537,1.398,9.304,1.574,10.05c0.02,0.084,0.075,0.146,0.119,0.214
		c0.021,0.033,0.035,0.068,0.05,0.103c0.033,0.073-0.036,0.156-0.078,0.208c-0.093,0.119-0.271,0.376-0.366,0.493
		c-0.32,0.393-0.525,0.677-0.784,1.122c-0.086,0.148-0.186,0.285-0.269,0.434c-0.117,0.209-0.279,0.464-0.241,0.713
		c0.006,0.038,0.016,0.076,0.033,0.114c0.137,0.325,0.595,0.457,0.902,0.541c0.124,0.034,0.244,0.081,0.36,0.138
		c0.082,0.04,0.133,0.186,0.109,0.275c-0.067,0.255-0.121,0.513-0.181,0.769c-0.034,0.143-0.086,0.276-0.062,0.425
		c0.022,0.137,0.065,0.273,0.131,0.394c0.064,0.118,0.144,0.216,0.248,0.297c0.054,0.041,0.049,0.1,0.03,0.149
		c-0.054,0.134-0.077,0.278-0.101,0.419c-0.021,0.122-0.052,0.248-0.007,0.368c0.068,0.18,0.21,0.319,0.308,0.481
		c0.072,0.117,0.161,0.225,0.21,0.357c0.029,0.075,0.016,0.151-0.006,0.219c-0.062,0.193-0.076,0.392-0.09,0.59
		c-0.021,0.28,0.065,0.556,0.202,0.798c0.094,0.164,0.195,0.322,0.33,0.456c0.144,0.142,0.291,0.285,0.459,0.399
		c0.209,0.141,0.46,0.256,0.703,0.326c0.143,0.041,0.289,0.068,0.436,0.084c0.157,0.018,0.316,0.023,0.474,0.018
		c0.152-0.004,0.303-0.021,0.454-0.04c0.252-0.033,0.504-0.08,0.758-0.099c0.269-0.021,0.539,0,0.807,0.025
		c0.238,0.021,0.438,0.119,0.575,0.32c0.089,0.132,0.149,0.283,0.214,0.43c0.069,0.157,0.149,0.309,0.244,0.454
		c0.127,0.194,0.256,0.398,0.411,0.57c0.177,0.195,0.379,0.364,0.534,0.58c0.074,0.102,0.174,0.191,0.253,0.29
		c0.157,0.194,0.294,0.402,0.439,0.605h12.459C21.128,23.177,20.397,22.045,20.077,21.428z"/>
</g>
</svg>
