<?xml version="1.0" encoding="iso-8859-1"?>
<!-- Generator: Adobe Illustrator 17.1.0, SVG Export Plug-In . SVG Version: 6.00 Build 0)  -->
<!DOCTYPE svg PUBLIC "-//W3C//DTD SVG 1.1//EN" "http://www.w3.org/Graphics/SVG/1.1/DTD/svg11.dtd">
<svg version="1.1" id="Layer_1" xmlns="http://www.w3.org/2000/svg" xmlns:xlink="http://www.w3.org/1999/xlink" x="0px" y="0px"
	 viewBox="0 0 22.662 21.381" style="enable-background:new 0 0 22.662 21.381;" xml:space="preserve">
<polygon style="fill:none;stroke:#000000;stroke-width:2;stroke-miterlimit:10;" points="5.997,18.38 1.082,12.216 2.836,4.53 
	9.939,1.11 17.042,4.53 18.796,12.216 13.881,18.38 "/>
<path d="M22.501,21.158c0.141-0.161,0.193-0.371,0.142-0.562c-0.027-0.101-0.084-0.189-0.159-0.257l-0.054-0.046
	c-1.053-0.922-3.8-3.317-6.533-5.643c-3.371-2.872-4.938-4.127-5.699-4.675c-0.003-0.013,0.002-0.027-0.002-0.041
	c-0.033-0.125-0.107-0.24-0.211-0.33c-0.253-0.22-0.614-0.22-0.805,0.001c-0.108,0.126-0.145,0.296-0.099,0.47
	c0.032,0.121,0.107,0.241,0.21,0.33c0.114,0.098,0.255,0.145,0.396,0.154c0.63,0.654,2.071,2.014,5.429,4.976
	c2.654,2.345,5.427,4.739,6.498,5.658l0.072,0.064C21.915,21.455,22.28,21.412,22.501,21.158z"/>
</svg>
