<?xml version="1.0" encoding="iso-8859-1"?>
<!-- Generator: Adobe Illustrator 17.1.0, SVG Export Plug-In . SVG Version: 6.00 Build 0)  -->
<!DOCTYPE svg PUBLIC "-//W3C//DTD SVG 1.1//EN" "http://www.w3.org/Graphics/SVG/1.1/DTD/svg11.dtd">
<svg version="1.1" id="Layer_1" xmlns="http://www.w3.org/2000/svg" xmlns:xlink="http://www.w3.org/1999/xlink" x="0px" y="0px"
	 viewBox="0 0 24.699 27.573" style="enable-background:new 0 0 24.699 27.573;" xml:space="preserve">
<path d="M3.47,27.479c0.184,0.11,0.399,0.124,0.579,0.039c0.094-0.044,0.171-0.117,0.224-0.203l0.035-0.061
	c0.718-1.201,2.581-4.334,4.379-7.439c2.221-3.831,3.174-5.598,3.576-6.445c0.012-0.006,0.027-0.003,0.04-0.009
	c0.117-0.055,0.217-0.148,0.286-0.267c0.171-0.288,0.106-0.643-0.145-0.792c-0.143-0.084-0.317-0.09-0.48-0.013
	c-0.113,0.053-0.218,0.149-0.287,0.265c-0.076,0.129-0.097,0.276-0.081,0.417c-0.53,0.737-1.61,2.399-3.921,6.233
	c-1.831,3.032-3.689,6.19-4.4,7.408l-0.05,0.083C3.072,26.956,3.18,27.308,3.47,27.479z"/>
<path d="M20.244,25.974c0.196-0.085,0.333-0.252,0.37-0.447c0.019-0.103,0.005-0.207-0.034-0.3l-0.029-0.065
	c-0.556-1.285-2.013-4.625-3.485-7.898c-1.815-4.04-2.693-5.845-3.146-6.666c0.002-0.013,0.013-0.023,0.016-0.038
	c0.024-0.128,0.006-0.263-0.049-0.388c-0.134-0.307-0.46-0.462-0.728-0.344c-0.152,0.067-0.258,0.205-0.291,0.383
	c-0.023,0.123-0.006,0.264,0.048,0.388c0.061,0.137,0.168,0.24,0.292,0.309c0.289,0.86,1.008,2.707,2.773,6.822
	c1.393,3.256,2.873,6.608,3.447,7.897l0.038,0.089C19.587,25.992,19.935,26.109,20.244,25.974z"/>
<circle style="fill:none;stroke:#231F20;stroke-width:2;stroke-linecap:round;stroke-miterlimit:10;" cx="12.349" cy="12.349" r="11.349"/>
</svg>
