<?xml version="1.0" encoding="iso-8859-1"?>
<!-- Generator: Adobe Illustrator 17.1.0, SVG Export Plug-In . SVG Version: 6.00 Build 0)  -->
<!DOCTYPE svg PUBLIC "-//W3C//DTD SVG 1.1//EN" "http://www.w3.org/Graphics/SVG/1.1/DTD/svg11.dtd">
<svg version="1.1" id="Layer_1" xmlns="http://www.w3.org/2000/svg" xmlns:xlink="http://www.w3.org/1999/xlink" x="0px" y="0px"
	 viewBox="0 0 47.913 47.913" style="enable-background:new 0 0 47.913 47.913;" xml:space="preserve">
<path style="fill:#E41E2B;" d="M47.913,27.739v-7.565h-6.445c-0.453-2.522-1.246-3.98-2.31-5.667l4.563-4.613L38.08,4.221
	l-4.672,4.551c-1.687-1.063-3.147-1.867-5.669-2.322V0h-7.565v6.45c-2.522,0.454-3.977,1.245-5.662,2.306L9.895,4.191L4.226,9.841
	l4.548,4.668c-1.061,1.687-1.867,3.144-2.322,5.665H0v7.565h6.452c0.453,2.522,1.244,3.977,2.305,5.664l-4.563,4.615l5.647,5.675
	l4.669-4.55c1.687,1.062,3.142,1.867,5.664,2.321v6.448h7.565v-6.447c2.522-0.454,3.98-1.246,5.671-2.309l4.613,4.562l5.671-5.644
	l-4.548-4.669c1.064-1.687,1.869-3.145,2.322-5.667H47.913z M31.943,23.955c0,4.409-3.573,7.985-7.984,7.985
	s-7.986-3.576-7.986-7.985c0-4.411,3.576-7.985,7.986-7.985S31.943,19.545,31.943,23.955z"/>
</svg>
