<?xml version="1.0" encoding="iso-8859-1"?>
<!-- Generator: Adobe Illustrator 17.1.0, SVG Export Plug-In . SVG Version: 6.00 Build 0)  -->
<!DOCTYPE svg PUBLIC "-//W3C//DTD SVG 1.1//EN" "http://www.w3.org/Graphics/SVG/1.1/DTD/svg11.dtd">
<svg version="1.1" id="Layer_1" xmlns="http://www.w3.org/2000/svg" xmlns:xlink="http://www.w3.org/1999/xlink" x="0px" y="0px"
	 viewBox="0 0 19.937 25.443" style="enable-background:new 0 0 19.937 25.443;" xml:space="preserve">
<g id="_x36_bHMye_1_">
	<g>
		<path d="M0.726,13.822c0.345,0.15,0.785,0.37,0.463,0.826c-0.73,1.044,0.039,1.193,0.761,1.39
			c0.118,0.032,0.244,0.032,0.456,0.055c-0.377,0.188-0.691,0.298-0.958,0.487c-0.189,0.126-0.518,0.393-0.243,0.589
			c0.66,0.472,0.416,1.108,0.471,1.704c-0.063,0.565,0.212,0.864,0.747,0.958c0.282,0.259,0.776,0.137,0.95,0.173
			c0.204-0.093,0.216-0.045,0.387-0.095c0.738-0.299,1.301-0.062,2.063-0.055c0.494,0,0.887,0.142,0.958,0.706
			c0.526,1.807,0.18,1.467-0.306,3.209c-0.04,0.118-0.04,0.244-0.055,0.37c-0.133,0.425-0.267,0.857-0.4,1.288
			c0.785,0.008,1.562,0.046,2.34-0.055c0.048,0,0.094-0.008,0.134-0.008c0.142-0.024,0.275-0.047,0.417-0.079
			c0.667,0,1.335,0.008,2.002,0.008h5.38c-1.422-3.016-2.71-3.815-1.516-7.065c0.676,0.353,1.713,0.157,2.27-0.542
			c0.196-0.251,0.338-0.439,0.652-0.581c0.251-0.109,0.558-0.432,0.322-0.832c-0.11-0.188-0.165-0.433,0.04-0.471
			c0.761-0.15,0.565-0.73,0.612-1.21c0.22-0.407,0.196-0.815-0.008-1.224c0.172-0.684,0.793-1.139,0.935-1.846
			c-0.424-0.825-0.188-1.634,0.023-2.45c-0.196-0.455,0.322-0.715,0.314-1.124c-0.448-0.187-0.353-0.589-0.338-0.935
			c0.008-0.486-0.346-0.84-0.416-1.287c-0.11-0.142-0.228-0.284-0.346-0.433c-0.023-0.259,0.055-0.541-0.196-0.738
			c-0.839-0.998-1.523-2.176-2.945-2.49c-0.236-0.056-0.456-0.213-0.393-0.535c0.048-0.094,0.048-0.196,0-0.29
			c-0.141-0.22-0.337-0.362-0.612-0.369c-0.456,0.087-0.904-0.22-1.359-0.032C12.146,0.558,10.968,0.283,9.782,0
			C9.593,0.007,9.404,0.007,9.216,0.017C8.918,0.33,8.619,0.495,8.171,0.236C7.7-0.031,7.221,0.166,6.765,0.345
			C6.703,0.362,6.64,0.385,6.577,0.401C6.507,0.44,6.491,0.487,6.507,0.526c0.023,0.04,0.047,0.063,0.071,0.063
			c0.337,0.055,0.236,0.228,0.078,0.353C6.302,1.225,5.886,1.375,5.453,1.437C4.331,1.586,3.671,2.309,3.239,3.252
			C3.043,3.667,2.768,3.856,2.36,3.99C1.174,4.374,0.835,4.861,0.71,6.141C0.679,6.44,0.467,6.715,0.333,6.99
			c-0.15,0.26-0.172,0.495,0.047,0.723c0,0.478-0.26,1.067,0.542,1.17c0.66,0.534,0.463,1.39,0.746,2.057
			c-0.252,0.377-0.503,0.755-0.754,1.124l-0.393,0.393c-0.228,0.142-0.441,0.298-0.503,0.581
			C-0.099,13.619,0.357,13.666,0.726,13.822z"/>
	</g>
</g>
</svg>
