<?xml version="1.0" encoding="utf-8"?>
<!-- Generator: Adobe Illustrator 16.2.1, SVG Export Plug-In . SVG Version: 6.00 Build 0)  -->
<!DOCTYPE svg PUBLIC "-//W3C//DTD SVG 1.1//EN" "http://www.w3.org/Graphics/SVG/1.1/DTD/svg11.dtd">
<svg version="1.1" id="Layer_1" xmlns="http://www.w3.org/2000/svg" xmlns:xlink="http://www.w3.org/1999/xlink" x="0px" y="0px"
	 width="44.999px" height="45px" viewBox="0 0 44.999 45" enable-background="new 0 0 44.999 45" xml:space="preserve">
<g>
	<path d="M28.354,17.368l-3.322,5.031l0.582,2.785l4.427-6.703c0.308-0.466,0.181-1.093-0.286-1.4
		c-0.171-0.113-0.365-0.167-0.556-0.167C28.871,16.914,28.55,17.073,28.354,17.368z"/>
	<path d="M30.573,23.634c-0.328,0-0.65,0.16-0.844,0.455l-2.618,3.963l-0.337-0.224l4.623-6.998c0.307-0.466,0.179-1.093-0.287-1.4
		c-0.172-0.112-0.365-0.168-0.557-0.168c-0.328,0-0.648,0.16-0.844,0.454l-3.98,6.025l0.797,3.809
		c0.25,1.202,0.006,2.543-0.664,3.742c0.027-0.024,0.062-0.043,0.09-0.068c0.033-0.03,0.064-0.062,0.098-0.094
		c0.214-0.209,0.413-0.43,0.576-0.677l4.622-6.998c0.476-0.719,0.347-1.346-0.119-1.653C30.958,23.689,30.765,23.634,30.573,23.634z
		"/>
	<path d="M27.063,16.757c-0.172-0.113-0.365-0.168-0.557-0.168c-0.328,0-0.65,0.16-0.844,0.454l-1.891,2.861
		c0.449,0.19,0.867,0.624,1.035,1.425l0.107,0.513l2.434-3.685C27.657,17.691,27.529,17.064,27.063,16.757z"/>
	<path d="M26.003,29.644l-1.72-8.221c-0.155-0.743-0.587-1.105-1.059-1.105c-0.064,0-0.13,0.006-0.195,0.021
		c-0.544,0.111-0.894,0.646-0.778,1.192l0.974,4.656l-0.394,0.08l-1.72-8.22c-0.101-0.479-0.521-0.809-0.989-0.809
		c-0.066,0-0.135,0.007-0.203,0.021c-0.543,0.113-0.892,0.646-0.777,1.194l1.594,7.626l-0.395,0.081l-1.842-8.815
		c-0.101-0.479-0.521-0.808-0.99-0.808c-0.066,0-0.135,0.007-0.202,0.021c-0.544,0.112-0.892,0.647-0.778,1.193l1.842,8.814
		l-0.394,0.082l-1.595-7.627c-0.1-0.479-0.521-0.808-0.988-0.808c-0.067,0-0.135,0.006-0.203,0.02
		c-0.544,0.113-0.893,0.647-0.777,1.194l2.234,10.696l-0.395,0.081l-0.807-3.862c-0.1-0.479-0.521-0.81-0.988-0.81
		c-0.067,0-0.136,0.008-0.205,0.021c-0.543,0.112-0.953,0.35-0.777,1.194l0.973,4.653c0.581,2.776,3.023,4.688,5.738,4.688
		c0.389,0,0.781-0.039,1.177-0.12C24.521,35.319,26.54,32.222,26.003,29.644z"/>
	<polygon points="23.892,8.91 20.515,8.91 22.203,12.303 	"/>
	<polygon points="18.19,9.368 15.804,11.755 19.396,12.961 	"/>
	<polygon points="26.216,9.368 25.011,12.961 28.604,11.755 	"/>
</g>
</svg>
