<?xml version="1.0" encoding="iso-8859-1"?>
<!-- Generator: Adobe Illustrator 17.1.0, SVG Export Plug-In . SVG Version: 6.00 Build 0)  -->
<!DOCTYPE svg PUBLIC "-//W3C//DTD SVG 1.1//EN" "http://www.w3.org/Graphics/SVG/1.1/DTD/svg11.dtd">
<svg version="1.1" id="Layer_1" xmlns="http://www.w3.org/2000/svg" xmlns:xlink="http://www.w3.org/1999/xlink" x="0px" y="0px"
	 viewBox="0 0 24 21.565" style="enable-background:new 0 0 24 21.565;" xml:space="preserve">
<g>
	<path d="M23.344,4.754c-0.138-0.574-0.295-1.108-0.469-1.596s-0.364-0.929-0.568-1.317C21.694,0.679,20.955,0,20.16,0l-0.008,0.001
		c-0.024,0-0.047,0.008-0.07,0.01V0.006h-0.592V0l-1.828,0c-0.014,0-0.027,0.005-0.027,0.005l-1.275,0
		C16.346,0.005,16.333,0,16.32,0c-0.014,0-0.027,0.005-0.04,0.006h-0.37L15.911,0h-1.828c-0.014,0-0.027,0.005-0.04,0.006h-0.517V0
		h-1.828c-0.014,0-0.027,0.005-0.04,0.006h-0.084v0.012v0c-0.774,0.07-1.489,0.776-2.082,1.948C9.492,1.967,9.492,1.968,9.491,1.969
		C9.394,2.161,9.3,2.366,9.209,2.582c-0.005,0.013-0.01,0.027-0.016,0.04C9.108,2.828,9.026,3.043,8.948,3.269
		C8.937,3.298,8.928,3.33,8.918,3.359C8.846,3.573,8.775,3.792,8.709,4.022C8.695,4.073,8.682,4.128,8.667,4.18
		C8.608,4.394,8.55,4.611,8.496,4.837c-0.018,0.077-0.034,0.16-0.052,0.239C8.398,5.284,8.352,5.492,8.311,5.71
		C8.29,5.817,8.273,5.93,8.254,6.039c-0.035,0.197-0.07,0.393-0.1,0.597c-0.021,0.14-0.037,0.286-0.056,0.429
		c-0.024,0.182-0.049,0.361-0.07,0.547C8.009,7.786,7.995,7.966,7.979,8.144C7.965,8.307,7.947,8.467,7.935,8.633
		C7.919,8.856,7.909,9.086,7.898,9.315c-0.006,0.126-0.015,0.249-0.02,0.376c-0.013,0.359-0.02,0.723-0.02,1.092
		s0.007,0.733,0.02,1.092c0.005,0.127,0.014,0.25,0.02,0.376c0.011,0.229,0.021,0.459,0.037,0.682
		c0.012,0.166,0.029,0.325,0.044,0.488c0.016,0.178,0.03,0.358,0.049,0.532c0.021,0.188,0.046,0.369,0.071,0.552
		c0.019,0.141,0.035,0.285,0.055,0.424c0.008,0.053,0.017,0.104,0.025,0.157l-1.041-2.67c0.209-0.361,0.267-0.806,0.108-1.227
		L6.58,9.417c-0.28-0.744-1.11-1.12-1.854-0.84c-0.744,0.28-1.12,1.11-0.84,1.855l0.666,1.771c0.201,0.533,0.685,0.873,1.217,0.922
		l1.236,3.17L0.52,18.496c-0.008,0.003-0.015,0.008-0.024,0.011c-0.026,0.01-0.051,0.022-0.076,0.035
		c-0.021,0.011-0.042,0.021-0.061,0.033c-0.022,0.014-0.042,0.029-0.061,0.045c-0.019,0.015-0.039,0.03-0.057,0.047
		c-0.018,0.017-0.034,0.036-0.05,0.054c-0.016,0.018-0.032,0.036-0.046,0.056c-0.015,0.021-0.028,0.043-0.04,0.065
		c-0.012,0.02-0.023,0.04-0.033,0.061c-0.011,0.023-0.019,0.047-0.027,0.072c-0.008,0.023-0.016,0.046-0.022,0.07
		c-0.005,0.023-0.009,0.047-0.012,0.07c-0.004,0.027-0.007,0.054-0.008,0.082C0.002,19.205,0,19.213,0,19.222
		c0,0.015,0.004,0.029,0.004,0.044c0.002,0.027,0.004,0.054,0.008,0.08c0.004,0.026,0.011,0.053,0.018,0.079
		c0.004,0.014,0.005,0.029,0.01,0.043c0.002,0.006,0.006,0.01,0.008,0.016c0.025,0.068,0.058,0.131,0.099,0.187
		c0.008,0.011,0.017,0.021,0.026,0.031c0.041,0.05,0.087,0.096,0.139,0.134c0.006,0.004,0.011,0.01,0.017,0.014
		c0.057,0.039,0.119,0.069,0.184,0.092c0.015,0.005,0.029,0.01,0.044,0.014c0.066,0.019,0.134,0.031,0.204,0.032l0.004,0.001
		l0.001,0h8.939c0.548,0.937,1.184,1.497,1.867,1.559l0,0v0.004h0.029c0.032,0.002,0.063,0.013,0.095,0.013h0h1.828v-0.013h0.462
		c0.032,0.002,0.063,0.013,0.095,0.013h1.828l-0.004-0.013h0.317c0.032,0.002,0.063,0.013,0.095,0.013s0.063-0.011,0.095-0.013
		h1.152c0.032,0.002,0.063,0.013,0.095,0.013h1.828v-0.013h0.576c0.032,0.002,0.063,0.013,0.095,0.013
		c2.121,0,3.84-4.827,3.84-10.782C24,8.549,23.758,6.475,23.344,4.754z M20.16,20.543c-0.178,0-0.414-0.15-0.671-0.443
		c-0.164-0.187-0.337-0.438-0.511-0.753c-0.173-0.312-0.345-0.687-0.511-1.131c-0.02-0.053-0.04-0.098-0.059-0.152
		c-0.687-1.929-1.065-4.515-1.065-7.281c0-2.766,0.378-5.352,1.065-7.281c0.019-0.054,0.04-0.1,0.059-0.152
		c0.166-0.444,0.338-0.819,0.511-1.131c0.174-0.315,0.347-0.565,0.511-0.753c0.257-0.293,0.492-0.443,0.671-0.443
		c0.419,0,1.146,0.776,1.752,2.479c0.687,1.929,1.065,4.515,1.065,7.281C22.978,17.098,21.116,20.543,20.16,20.543z M8.881,10.783
		c0-2.766,0.378-5.352,1.066-7.281c0.607-1.703,1.334-2.479,1.752-2.479h0.761c-1.308,1.719-2.216,5.437-2.216,9.76
		s0.908,8.041,2.216,9.76h-0.761c-0.257,0-0.58-0.257-0.913-0.743c-0.231-0.336-0.466-0.785-0.69-1.344
		C9.436,16.812,8.881,14.228,8.881,10.783z M18.467,1.115c-1.271,1.758-2.147,5.421-2.147,9.667s0.876,7.909,2.147,9.667v0.093
		h-0.806c-0.956,0-2.818-3.445-2.818-9.76s1.861-9.76,2.818-9.76h0.806V1.115z"/>
	<ellipse cx="21.408" cy="11.969" rx="0.898" ry="2.52"/>
</g>
</svg>
