<?xml version="1.0" encoding="iso-8859-1"?>
<!-- Generator: Adobe Illustrator 17.1.0, SVG Export Plug-In . SVG Version: 6.00 Build 0)  -->
<!DOCTYPE svg PUBLIC "-//W3C//DTD SVG 1.1//EN" "http://www.w3.org/Graphics/SVG/1.1/DTD/svg11.dtd">
<svg version="1.1" id="Layer_1" xmlns="http://www.w3.org/2000/svg" xmlns:xlink="http://www.w3.org/1999/xlink" x="0px" y="0px"
	 viewBox="0 0 22.448 23.855" style="enable-background:new 0 0 22.448 23.855;" xml:space="preserve">
<g>
	<g>
		<path d="M0.636,4.84c1.562,2.359,1.225,4.546-0.334,6.303c-1.029,0.915,0.859,0.492,1.444,1.704
			c0.043,0.089-0.098,1.11-0.066,1.199c0.142,0.395,0.447,0.886,0.416,1.277c-0.035,0.436-0.155,0.375-0.311,0.801
			c-0.379,1.035-0.103,1.182,0.028,1.498c0.367,0.883,2.522,0.393,3.752,0.773c1.924,0.595-0.002,5.386,1.142,5.386
			c0.4,0,4.111-0.32,7.032,0.023c0.796,0.094,0.345,0.208,0.517-1.224c0.046-0.385,4.331,2.886,8.192-4.247
			c-3.494,0.229-5.96,0.431-3.989-3.975C21.692,7.128,18.106-1.257,7.044,0.157C4.045,0.541-0.259,4.09,0.636,4.84z"/>
	</g>
</g>
</svg>
