<?xml version="1.0" encoding="iso-8859-1"?>
<!-- Generator: Adobe Illustrator 17.1.0, SVG Export Plug-In . SVG Version: 6.00 Build 0)  -->
<!DOCTYPE svg PUBLIC "-//W3C//DTD SVG 1.1//EN" "http://www.w3.org/Graphics/SVG/1.1/DTD/svg11.dtd">
<svg version="1.1" id="Layer_1" xmlns="http://www.w3.org/2000/svg" xmlns:xlink="http://www.w3.org/1999/xlink" x="0px" y="0px"
	 viewBox="0 0 25.511 21.482" style="enable-background:new 0 0 25.511 21.482;" xml:space="preserve">
<g>
	<g>
		<path d="M1.355,12.887c1.853,1.355,5.447,2.331,9.703,2.539c0.555,0.029,1.12,0.042,1.695,0.042c0.34,0,0.675-0.004,1.004-0.013
			c4.561-0.132,8.445-1.14,10.398-2.568c0.864-0.629,1.355-1.34,1.355-2.094c0-1.991-3.39-3.688-8.166-4.364
			c-0.371,0.833-2.285,1.467-4.598,1.467c-2.311,0-4.226-0.634-4.599-1.463C3.381,7.109,0,8.806,0,10.793
			C0,11.547,0.489,12.258,1.355,12.887z M17.558,10.655c-0.16-0.024-0.318-0.048-0.48-0.07
			C17.24,10.607,17.398,10.631,17.558,10.655z M23.751,12.617c-0.046-0.031-0.097-0.059-0.147-0.088
			C23.654,12.558,23.705,12.587,23.751,12.617z M23.301,12.356c-0.066-0.033-0.132-0.068-0.197-0.101
			C23.17,12.288,23.235,12.324,23.301,12.356z M22.806,12.106c-0.075-0.035-0.156-0.068-0.233-0.103
			C22.65,12.038,22.731,12.071,22.806,12.106z M22.268,11.874c-0.086-0.037-0.175-0.07-0.265-0.105
			C22.093,11.804,22.183,11.837,22.268,11.874z M21.694,11.652c-0.096-0.035-0.195-0.068-0.296-0.103
			C21.499,11.585,21.597,11.617,21.694,11.652z M21.08,11.446c-0.105-0.035-0.213-0.066-0.322-0.099
			C20.867,11.381,20.975,11.411,21.08,11.446z M20.431,11.256c-0.112-0.033-0.23-0.064-0.346-0.094
			C20.201,11.192,20.319,11.223,20.431,11.256z M19.753,11.078c-0.125-0.029-0.25-0.059-0.377-0.088
			C19.503,11.019,19.628,11.05,19.753,11.078z M19.045,10.918c-0.134-0.026-0.27-0.055-0.406-0.081
			C18.775,10.863,18.911,10.892,19.045,10.918z M18.313,10.778c-0.147-0.026-0.294-0.053-0.441-0.075
			C18.019,10.725,18.166,10.751,18.313,10.778z M13.791,10.326c0.783,0.022,1.542,0.072,2.274,0.145
			C15.332,10.398,14.572,10.348,13.791,10.326z M16.262,10.49c0.18,0.015,0.357,0.039,0.535,0.061
			C16.62,10.53,16.442,10.506,16.262,10.49z M8.6,10.565c-0.165,0.02-0.329,0.044-0.491,0.066C8.271,10.609,8.436,10.585,8.6,10.565
			z M11.039,10.352c-0.191,0.011-0.382,0.022-0.57,0.035C10.657,10.374,10.848,10.363,11.039,10.352z M10.205,10.403
			c-0.18,0.015-0.355,0.031-0.535,0.046C9.85,10.433,10.026,10.418,10.205,10.403z M9.394,10.475
			c-0.173,0.018-0.342,0.035-0.513,0.057C9.052,10.51,9.221,10.492,9.394,10.475z M1.75,12.622c0.044-0.029,0.097-0.055,0.143-0.083
			C1.846,12.567,1.794,12.593,1.75,12.622z M2.188,12.367c0.062-0.033,0.127-0.064,0.191-0.097
			C2.316,12.304,2.25,12.334,2.188,12.367z M2.671,12.124c0.075-0.035,0.149-0.068,0.224-0.099
			C2.82,12.056,2.746,12.089,2.671,12.124z M3.195,11.896c0.081-0.037,0.164-0.07,0.248-0.103
			C3.359,11.826,3.276,11.859,3.195,11.896z M3.752,11.677c0.094-0.033,0.184-0.068,0.278-0.099
			C3.936,11.609,3.846,11.644,3.752,11.677z M4.346,11.473c0.099-0.031,0.197-0.064,0.3-0.094
			C4.543,11.409,4.445,11.442,4.346,11.473z M4.962,11.288c0.112-0.033,0.221-0.066,0.338-0.096
			C5.184,11.223,5.074,11.256,4.962,11.288z M5.48,11.148c0.298-0.077,0.605-0.149,0.921-0.215
			C6.085,10.999,5.778,11.071,5.48,11.148z M6.631,10.885c0.151-0.033,0.307-0.059,0.461-0.088
			C6.938,10.826,6.782,10.852,6.631,10.885z M7.357,10.749c0.158-0.026,0.316-0.051,0.476-0.077
			C7.673,10.699,7.515,10.723,7.357,10.749z"/>
		<path d="M12.747,8.567c2.313,0,4.228-0.634,4.598-1.467c0.044-0.094,0.07-0.193,0.07-0.292c0-0.796-1.399-1.467-3.318-1.684v-3.78
			C14.098,0.599,13.49,0,12.747,0c-0.748,0-1.351,0.599-1.351,1.344v3.78c-1.919,0.217-3.32,0.89-3.32,1.684
			c0,0.101,0.029,0.2,0.072,0.296C8.521,7.934,10.436,8.567,12.747,8.567z"/>
		<path d="M24.156,8.76c-1.954,1.425-5.837,2.434-10.398,2.565c-0.329,0.007-0.664,0.015-1.004,0.015
			c-0.575,0-1.14-0.015-1.695-0.044c-4.256-0.208-7.85-1.184-9.703-2.537C0.489,9.391,0,10.101,0,10.856
			c0,2.37,4.815,4.329,11.059,4.633v-1.862c0,0,0,0.002,0,0.004l0,0v0.143h0.015c0.075,0.673,0.638,1.197,1.336,1.197
			c0.693,0,1.261-0.524,1.333-1.197h0.015v1.735c6.576-0.265,11.753-3.052,11.753-4.653C25.511,10.101,25.02,9.391,24.156,8.76z"/>
	</g>
	<path d="M12.745,12.915c-2.313,0-4.228,0.634-4.598,1.467c-0.044,0.094-0.07,0.193-0.07,0.292c0,0.796,1.399,1.467,3.318,1.684
		l0,3.78c0,0.745,0.607,1.344,1.351,1.344c0.748,0,1.351-0.599,1.351-1.344l0-3.78c1.919-0.217,3.32-0.89,3.32-1.684
		c0-0.101-0.029-0.2-0.072-0.296C16.971,13.548,15.056,12.915,12.745,12.915z"/>
</g>
</svg>
