<?xml version="1.0" encoding="iso-8859-1"?>
<!-- Generator: Adobe Illustrator 17.1.0, SVG Export Plug-In . SVG Version: 6.00 Build 0)  -->
<!DOCTYPE svg PUBLIC "-//W3C//DTD SVG 1.1//EN" "http://www.w3.org/Graphics/SVG/1.1/DTD/svg11.dtd">
<svg version="1.1" id="Layer_1" xmlns="http://www.w3.org/2000/svg" xmlns:xlink="http://www.w3.org/1999/xlink" x="0px" y="0px"
	 viewBox="0 0 12.181 24.133" style="enable-background:new 0 0 12.181 24.133;" xml:space="preserve">
<g>
	<path d="M9.872,4.252c0.016-0.141,0.025-0.284,0.025-0.429C9.897,1.712,8.185,0,6.074,0C3.98,0,2.283,1.681,2.252,3.767H2.236v1.26
		h5.769v1.164H2.236v1.233h5.769v1.164H2.236v1.233h5.769v1.164H2.236v2.591h0.016c0,0.015-0.002,0.029-0.002,0.044
		c0,2.112,1.712,3.824,3.824,3.824c2.112,0,3.823-1.712,3.823-3.824c0-0.145-0.01-0.287-0.025-0.429L9.872,4.252L9.872,4.252z"/>
	<path d="M12.181,13.589V10.96c0-0.4-0.324-0.724-0.724-0.724s-0.724,0.324-0.724,0.724v2.629c0,2.559-2.083,4.642-4.642,4.642
		s-4.642-2.082-4.642-4.642V10.96c0-0.4-0.324-0.724-0.724-0.724C0.324,10.236,0,10.56,0,10.96v2.629
		c0,3.098,2.326,5.661,5.323,6.04v3.055H1.623v1.448h9.054v-1.449H6.772V19.64C9.81,19.3,12.181,16.717,12.181,13.589z"/>
</g>
</svg>
