<?xml version="1.0" encoding="iso-8859-1"?>
<!-- Generator: Adobe Illustrator 17.1.0, SVG Export Plug-In . SVG Version: 6.00 Build 0)  -->
<!DOCTYPE svg PUBLIC "-//W3C//DTD SVG 1.1//EN" "http://www.w3.org/Graphics/SVG/1.1/DTD/svg11.dtd">
<svg version="1.1" id="Layer_1" xmlns="http://www.w3.org/2000/svg" xmlns:xlink="http://www.w3.org/1999/xlink" x="0px" y="0px"
	 viewBox="0 0 85 85" style="enable-background:new 0 0 85 85;" xml:space="preserve">
<g>
	<path style="fill:#E41E2B;" d="M42.75,2.25c-22.091,0-40,17.909-40,40c0,22.091,17.909,40,40,40c22.092,0,40-17.909,40-40
		C82.75,20.159,64.841,2.25,42.75,2.25z M37.501,60.511c0,1.062-0.861,1.923-1.923,1.923h-3.014c-1.062,0-1.923-0.861-1.923-1.923
		V23.989c0-1.062,0.861-1.923,1.923-1.923h3.014c1.062,0,1.923,0.861,1.923,1.923V60.511z M54.858,60.511
		c0,1.062-0.861,1.923-1.923,1.923h-3.013c-1.062,0-1.924-0.861-1.924-1.923V23.989c0-1.062,0.861-1.923,1.924-1.923h3.013
		c1.062,0,1.923,0.861,1.923,1.923V60.511z"/>
</g>
</svg>
