<?xml version="1.0" encoding="iso-8859-1"?>
<!-- Generator: Adobe Illustrator 17.1.0, SVG Export Plug-In . SVG Version: 6.00 Build 0)  -->
<!DOCTYPE svg PUBLIC "-//W3C//DTD SVG 1.1//EN" "http://www.w3.org/Graphics/SVG/1.1/DTD/svg11.dtd">
<svg version="1.1" id="Layer_1" xmlns="http://www.w3.org/2000/svg" xmlns:xlink="http://www.w3.org/1999/xlink" x="0px" y="0px"
	 viewBox="0 0 85 85" style="enable-background:new 0 0 85 85;" xml:space="preserve">
<g>
	<g>
		<g>
			<path style="fill:#E41E2B;" d="M43,2C20.909,2,3,19.909,3,42s17.909,40,40,40s40-17.909,40-40S65.091,2,43,2z M61.619,44.304
				L38.063,61.019c-0.795,0.491-1.352,0.691-1.921,0.691c-1.63,0-2.956-1.326-2.956-2.956V25.247c0-1.63,1.326-2.956,2.956-2.956
				c0.592,0,1.135,0.198,1.902,0.702l23.575,16.704c0.72,0.571,1.132,1.406,1.132,2.304C62.75,42.898,62.338,43.733,61.619,44.304z"
				/>
		</g>
	</g>
</g>
</svg>
