<?xml version="1.0" encoding="iso-8859-1"?>
<!-- Generator: Adobe Illustrator 17.1.0, SVG Export Plug-In . SVG Version: 6.00 Build 0)  -->
<!DOCTYPE svg PUBLIC "-//W3C//DTD SVG 1.1//EN" "http://www.w3.org/Graphics/SVG/1.1/DTD/svg11.dtd">
<svg version="1.1" id="Layer_1" xmlns="http://www.w3.org/2000/svg" xmlns:xlink="http://www.w3.org/1999/xlink" x="0px" y="0px"
	 viewBox="0 0 44.815 44.815" style="enable-background:new 0 0 44.815 44.815;" xml:space="preserve">
<circle style="fill:#E41E2B;" cx="22.408" cy="22.408" r="22.408"/>
<g>
	<path style="fill:#FFFFFF;" d="M32.626,22.083c0,1.211-1.008,2.151-2.151,2.151h-5.915v5.917c0,1.209-1.008,2.151-2.151,2.151
		c-1.211,0-2.151-0.942-2.151-2.151v-5.917h-5.915c-1.211,0-2.151-0.941-2.151-2.151c0-1.211,0.941-2.151,2.151-2.151h5.915v-5.917
		c0-1.209,0.941-2.151,2.151-2.151c1.143,0,2.151,0.942,2.151,2.151v5.917h5.915C31.617,19.931,32.626,20.872,32.626,22.083z"/>
</g>
</svg>
