<?xml version="1.0" encoding="iso-8859-1"?>
<!-- Generator: Adobe Illustrator 17.1.0, SVG Export Plug-In . SVG Version: 6.00 Build 0)  -->
<!DOCTYPE svg PUBLIC "-//W3C//DTD SVG 1.1//EN" "http://www.w3.org/Graphics/SVG/1.1/DTD/svg11.dtd">
<svg version="1.1" id="Layer_1" xmlns="http://www.w3.org/2000/svg" xmlns:xlink="http://www.w3.org/1999/xlink" x="0px" y="0px"
	 viewBox="0 0 38.217 39.007" style="enable-background:new 0 0 38.217 39.007;" xml:space="preserve">
<g>
	<path style="fill:#FFFFFF;" d="M26.574,1.538c2.313,1.025,4.33,2.416,6.05,4.171c1.72,1.755,3.082,3.814,4.087,6.175
		s1.507,4.893,1.507,7.596s-0.502,5.235-1.507,7.596s-2.367,4.427-4.087,6.198c-1.72,1.771-3.736,3.169-6.05,4.194
		s-4.794,1.538-7.443,1.538s-5.129-0.513-7.443-1.538s-4.338-2.423-6.073-4.194c-1.735-1.771-3.105-3.837-4.109-6.198
		S0,22.183,0,19.48s0.502-5.235,1.507-7.596s2.374-4.42,4.109-6.175s3.759-3.146,6.073-4.171S16.483,0,19.131,0
		S24.26,0.513,26.574,1.538z M22.83,26.89c-0.639,0-1.202-0.14-1.689-0.419c-0.396-0.249-0.67-0.575-0.822-0.979
		c-0.061-0.186-0.076-0.466-0.046-0.839c0.03-0.373,0.046-0.885,0.046-1.538v-6.058h4.749v-3.682h-4.749V8.528h-3.47
		c-0.122,1.087-0.38,2.019-0.776,2.796c-0.396,0.746-0.913,1.367-1.552,1.864c-0.335,0.28-0.738,0.513-1.21,0.699
		c-0.472,0.186-0.921,0.357-1.347,0.513v2.656h3.561v8.156c0,0.808,0.046,1.515,0.137,2.12c0.091,0.606,0.396,1.157,0.913,1.654
		c0.244,0.249,0.54,0.458,0.89,0.629c0.35,0.171,0.723,0.318,1.119,0.443c0.426,0.155,0.814,0.264,1.164,0.326
		c0.35,0.062,0.784,0.093,1.301,0.093c0.913,0,1.766-0.093,2.557-0.28c0.426-0.093,0.852-0.217,1.278-0.373s0.883-0.342,1.37-0.559
		v-3.449C25.098,26.533,23.956,26.89,22.83,26.89z"/>
</g>
</svg>
