<?xml version="1.0" encoding="iso-8859-1"?>
<!-- Generator: Adobe Illustrator 17.1.0, SVG Export Plug-In . SVG Version: 6.00 Build 0)  -->
<!DOCTYPE svg PUBLIC "-//W3C//DTD SVG 1.1//EN" "http://www.w3.org/Graphics/SVG/1.1/DTD/svg11.dtd">
<svg version="1.1" id="Layer_1" xmlns="http://www.w3.org/2000/svg" xmlns:xlink="http://www.w3.org/1999/xlink" x="0px" y="0px"
	 viewBox="0 0 38.217 39.007" style="enable-background:new 0 0 38.217 39.007;" xml:space="preserve">
<path style="fill:#FFFFFF;" d="M26.528,1.538c2.313,1.025,4.338,2.416,6.073,4.171s3.105,3.814,4.109,6.175s1.507,4.893,1.507,7.596
	s-0.502,5.235-1.507,7.596s-2.374,4.427-4.109,6.198c-1.735,1.771-3.759,3.169-6.073,4.194s-4.794,1.538-7.443,1.538
	s-5.129-0.513-7.443-1.538s-4.33-2.423-6.05-4.194c-1.72-1.771-3.082-3.837-4.087-6.198S0,22.183,0,19.48s0.502-5.235,1.507-7.596
	s2.367-4.42,4.087-6.175s3.736-3.146,6.05-4.171S16.437,0,19.086,0S24.215,0.513,26.528,1.538z M30.911,12.816
	c-0.426,0.186-0.86,0.342-1.301,0.466s-0.906,0.217-1.393,0.28c0.487-0.311,0.913-0.691,1.278-1.142
	c0.365-0.45,0.624-0.94,0.776-1.468c-0.457,0.249-0.928,0.474-1.415,0.676c-0.487,0.202-0.989,0.35-1.507,0.443
	c-0.426-0.435-0.928-0.792-1.507-1.072s-1.218-0.419-1.918-0.419c-0.639,0-1.24,0.124-1.804,0.373
	c-0.563,0.249-1.05,0.59-1.461,1.025c-0.411,0.435-0.738,0.94-0.982,1.515c-0.244,0.575-0.365,1.188-0.365,1.841
	c0,0.186,0.008,0.373,0.023,0.559s0.038,0.357,0.068,0.513c-1.918-0.093-3.698-0.575-5.342-1.445
	c-1.644-0.87-3.044-2.035-4.201-3.495c-0.426,0.715-0.639,1.507-0.639,2.377c0,0.808,0.19,1.561,0.571,2.26
	c0.38,0.699,0.875,1.266,1.484,1.701c-0.791-0.062-1.492-0.264-2.1-0.606v0.047c0,1.181,0.358,2.198,1.073,3.053
	c0.715,0.854,1.606,1.39,2.671,1.608c-0.213,0.062-0.419,0.109-0.616,0.14s-0.403,0.047-0.616,0.047
	c-0.152,0-0.297-0.008-0.434-0.023c-0.137-0.016-0.282-0.039-0.434-0.07c0.304,0.932,0.845,1.709,1.621,2.33
	s1.682,0.932,2.717,0.932c-0.791,0.652-1.682,1.157-2.671,1.515s-2.017,0.536-3.082,0.536c-0.213,0-0.411-0.008-0.594-0.023
	c-0.183-0.016-0.365-0.039-0.548-0.07c1.035,0.684,2.154,1.212,3.356,1.585c1.202,0.373,2.458,0.559,3.767,0.559
	c2.131,0,4.018-0.412,5.662-1.235c1.644-0.823,3.021-1.88,4.132-3.169c1.111-1.289,1.956-2.734,2.534-4.334s0.868-3.177,0.868-4.73
	v-0.606C29.466,14.602,30.242,13.779,30.911,12.816z"/>
</svg>
