<?xml version="1.0" encoding="iso-8859-1"?>
<!-- Generator: Adobe Illustrator 17.1.0, SVG Export Plug-In . SVG Version: 6.00 Build 0)  -->
<!DOCTYPE svg PUBLIC "-//W3C//DTD SVG 1.1//EN" "http://www.w3.org/Graphics/SVG/1.1/DTD/svg11.dtd">
<svg version="1.1" id="Layer_1" xmlns="http://www.w3.org/2000/svg" xmlns:xlink="http://www.w3.org/1999/xlink" x="0px" y="0px"
	 viewBox="0 0 30 30" style="enable-background:new 0 0 30 30;" xml:space="preserve">
<g>
	<path style="fill:#E5E5E5;" d="M0,0v30h30V0H0z M7.979,7.881c0.398-0.372,0.917-0.577,1.462-0.577c0.591,0,1.161,0.247,1.564,0.679
		c0.391,0.418,0.595,0.963,0.576,1.535c-0.019,0.572-0.26,1.102-0.678,1.492c-0.398,0.372-0.917,0.577-1.462,0.577
		c-0.591,0-1.161-0.247-1.564-0.679C7.071,10.045,7.117,8.687,7.979,7.881z M7.07,17.143c-0.572-0.019-1.102-0.26-1.493-0.678
		c-0.391-0.418-0.595-0.963-0.576-1.535c0.039-1.16,0.979-2.069,2.14-2.069l0.072,0.001c1.181,0.04,2.108,1.032,2.068,2.212
		c-0.039,1.16-0.979,2.07-2.14,2.07L7.07,17.143z M10.907,22.123C10.509,22.495,9.99,22.7,9.445,22.7
		c-0.591,0-1.161-0.247-1.565-0.679c-0.806-0.863-0.76-2.221,0.102-3.027c0.398-0.372,0.917-0.577,1.462-0.577
		c0.591,0,1.161,0.248,1.565,0.679c0.391,0.418,0.595,0.963,0.576,1.534C11.566,21.202,11.325,21.732,10.907,22.123z M14.997,5.001
		l0.073,0.001c0.571,0.019,1.102,0.26,1.492,0.678s0.595,0.963,0.576,1.535c-0.039,1.16-0.979,2.069-2.139,2.069l-0.073-0.001
		c-1.18-0.04-2.108-1.032-2.068-2.212C12.897,5.91,13.837,5.001,14.997,5.001z M15.003,25.001L14.93,25
		c-1.18-0.04-2.108-1.032-2.068-2.212c0.039-1.16,0.978-2.069,2.139-2.069l0.073,0.001c1.18,0.04,2.108,1.032,2.068,2.212
		C17.103,24.092,16.163,25.001,15.003,25.001z M19.093,7.878c0.398-0.372,0.917-0.577,1.462-0.577c0.591,0,1.161,0.247,1.565,0.679
		c0.391,0.418,0.595,0.963,0.576,1.535c-0.019,0.572-0.26,1.102-0.678,1.492c-0.398,0.372-0.917,0.577-1.462,0.577
		c-0.591,0-1.161-0.247-1.565-0.679c-0.391-0.418-0.595-0.963-0.576-1.535C18.435,8.799,18.675,8.269,19.093,7.878z M22.021,22.12
		c-0.398,0.372-0.917,0.577-1.462,0.577c-0.591,0-1.161-0.247-1.565-0.679c-0.391-0.418-0.595-0.963-0.576-1.535
		c0.019-0.572,0.26-1.102,0.678-1.492c0.398-0.372,0.917-0.577,1.462-0.577c0.591,0,1.161,0.247,1.565,0.679
		c0.391,0.418,0.595,0.963,0.576,1.535C22.679,21.2,22.438,21.73,22.021,22.12z M22.859,17.14l-0.073-0.001
		c-1.18-0.04-2.108-1.032-2.068-2.212c0.039-1.16,0.979-2.069,2.139-2.069l0.073,0.001c1.18,0.04,2.108,1.032,2.068,2.212
		C24.96,16.231,24.02,17.14,22.859,17.14z"/>
	<path style="fill:#A6A8AB;" d="M20.558,18.415c-0.545,0-1.064,0.205-1.462,0.577c-0.418,0.39-0.659,0.921-0.678,1.492
		c-0.019,0.572,0.185,1.117,0.576,1.535c0.403,0.432,0.974,0.679,1.565,0.679c0.545,0,1.064-0.205,1.462-0.577
		c0.418-0.391,0.659-0.921,0.678-1.492c0.019-0.572-0.185-1.117-0.576-1.535C21.719,18.662,21.149,18.415,20.558,18.415z"/>
	<path style="fill:#A6A8AB;" d="M22.931,12.859l-0.073-0.001c-1.161,0-2.1,0.909-2.139,2.069c-0.04,1.18,0.888,2.173,2.068,2.212
		l0.073,0.001c1.161,0,2.1-0.909,2.139-2.069C25.039,13.891,24.111,12.899,22.931,12.859z"/>
	<path style="fill:#A6A8AB;" d="M20.556,11.584c0.545,0,1.064-0.205,1.462-0.577c0.418-0.391,0.659-0.921,0.678-1.492
		c0.019-0.572-0.185-1.117-0.576-1.535c-0.404-0.432-0.974-0.679-1.565-0.679c-0.545,0-1.064,0.205-1.462,0.577
		c-0.418,0.391-0.659,0.921-0.678,1.492c-0.019,0.572,0.185,1.117,0.576,1.535C19.395,11.337,19.965,11.584,20.556,11.584z"/>
	<path style="fill:#A6A8AB;" d="M9.442,11.587c0.545,0,1.064-0.205,1.462-0.577c0.418-0.391,0.659-0.921,0.678-1.492
		c0.019-0.572-0.185-1.117-0.576-1.535c-0.403-0.432-0.974-0.679-1.564-0.679c-0.545,0-1.064,0.205-1.462,0.577
		c-0.863,0.807-0.908,2.164-0.102,3.027C8.281,11.339,8.851,11.587,9.442,11.587z"/>
	<path style="fill:#A6A8AB;" d="M9.282,15.075c0.04-1.18-0.888-2.173-2.068-2.212l-0.072-0.001c-1.161,0-2.101,0.909-2.14,2.069
		c-0.019,0.572,0.185,1.117,0.576,1.535c0.391,0.418,0.921,0.659,1.493,0.678l0.072,0.001C8.303,17.144,9.243,16.235,9.282,15.075z"
		/>
	<path style="fill:#A6A8AB;" d="M9.444,18.417c-0.545,0-1.064,0.205-1.462,0.577c-0.862,0.806-0.908,2.164-0.102,3.027
		C8.284,22.453,8.854,22.7,9.445,22.7c0.545,0,1.064-0.205,1.462-0.577c0.418-0.391,0.659-0.921,0.678-1.492
		c0.019-0.572-0.185-1.117-0.576-1.534C10.605,18.665,10.035,18.417,9.444,18.417z"/>
</g>
</svg>
