<?xml version="1.0" encoding="utf-8"?>
<!-- Generator: Adobe Illustrator 16.2.1, SVG Export Plug-In . SVG Version: 6.00 Build 0)  -->
<!DOCTYPE svg PUBLIC "-//W3C//DTD SVG 1.1//EN" "http://www.w3.org/Graphics/SVG/1.1/DTD/svg11.dtd">
<svg version="1.1" id="Layer_1" xmlns="http://www.w3.org/2000/svg" xmlns:xlink="http://www.w3.org/1999/xlink" x="0px" y="0px"
	 width="44.999px" height="45px" viewBox="0 0 44.999 45" enable-background="new 0 0 44.999 45" xml:space="preserve">
<g>
	<polygon points="24.614,12.758 20.794,12.758 22.704,16.598 	"/>
	<polygon points="18.164,13.275 15.463,15.977 19.528,17.342 	"/>
	<polygon points="27.244,13.275 25.88,17.342 29.944,15.977 	"/>
	<path d="M35.52,27.113c-0.002-0.041-0.015-0.076-0.028-0.113c-0.009-0.023-0.013-0.045-0.025-0.066
		c-0.003-0.006-0.003-0.012-0.007-0.018l-2.424-3.662c-0.062-0.094-0.16-0.158-0.271-0.176l-5.831-0.967
		c1.596-0.316,2.902-0.578,3.669-0.734l0.119-0.021c0.372-0.074,0.611-0.471,0.529-0.887c-0.051-0.264-0.219-0.479-0.448-0.576
		c-0.121-0.051-0.253-0.062-0.379-0.039l-0.087,0.018c-1.638,0.314-5.761,1.119-9.948,1.982l-7.384,1.225
		c-0.111,0.018-0.21,0.082-0.271,0.176l-0.199,0.303c-0.871,0.207-1.475,0.365-1.896,0.488c-0.016-0.006-0.024-0.021-0.042-0.029
		c-0.15-0.064-0.32-0.078-0.49-0.045c-0.414,0.08-0.692,0.439-0.621,0.801c0.041,0.205,0.182,0.373,0.391,0.461
		c0.146,0.061,0.322,0.08,0.489,0.047c0.185-0.037,0.342-0.141,0.459-0.273c0.219-0.023,0.488-0.057,0.817-0.102l-1.332,2.012
		c-0.066,0.1-0.085,0.225-0.051,0.34v1.762c0.034,0.115,0.117,0.209,0.228,0.256l6.791,2.936c0.051,0.021,0.105,0.033,0.161,0.033
		h10.892c0.056,0,0.11-0.012,0.161-0.033l6.792-2.936c0.066-0.029,0.118-0.078,0.16-0.135c0.012-0.016,0.019-0.033,0.028-0.051
		c0.013-0.023,0.031-0.045,0.039-0.07s0.003-0.053,0.006-0.08c0.001-0.012,0.011-0.023,0.011-0.037v-1.762
		C35.526,27.131,35.521,27.123,35.52,27.113z M28.329,30.074H17.438l-6.791-2.936l1.531-2.312c1.456-0.217,3.837-0.621,7.782-1.367
		c2.013-0.379,4.052-0.773,5.841-1.125l6.896,1.145l2.424,3.66L28.329,30.074z"/>
</g>
</svg>
