<?xml version="1.0" encoding="iso-8859-1"?>
<!-- Generator: Adobe Illustrator 17.1.0, SVG Export Plug-In . SVG Version: 6.00 Build 0)  -->
<!DOCTYPE svg PUBLIC "-//W3C//DTD SVG 1.1//EN" "http://www.w3.org/Graphics/SVG/1.1/DTD/svg11.dtd">
<svg version="1.1" id="Layer_1" xmlns="http://www.w3.org/2000/svg" xmlns:xlink="http://www.w3.org/1999/xlink" x="0px" y="0px"
	 viewBox="0 0 20.98 27.889" style="enable-background:new 0 0 20.98 27.889;" xml:space="preserve">
<g>
	<path d="M1.114,12.261c1.524,1.115,4.48,1.917,7.98,2.088c0.456,0.023,0.921,0.034,1.394,0.034c0.28,0,0.555-0.004,0.826-0.011
		c3.751-0.108,6.945-0.938,8.551-2.112c0.711-0.517,1.114-1.102,1.114-1.722c0-1.637-2.788-3.033-6.716-3.589
		c-0.305,0.685-1.879,1.206-3.782,1.206c-1.901,0-3.475-0.521-3.782-1.203C2.781,7.509,0,8.905,0,10.539
		C0,11.159,0.402,11.743,1.114,12.261z M14.439,10.425c-0.131-0.02-0.261-0.04-0.395-0.058
		C14.178,10.385,14.308,10.405,14.439,10.425z M19.532,12.039c-0.038-0.025-0.079-0.049-0.121-0.072
		C19.453,11.991,19.494,12.014,19.532,12.039z M19.163,11.825c-0.054-0.027-0.108-0.056-0.162-0.083
		C19.054,11.769,19.108,11.798,19.163,11.825z M18.755,11.619c-0.061-0.029-0.128-0.056-0.191-0.085
		C18.627,11.563,18.694,11.59,18.755,11.619z M18.313,11.428c-0.07-0.031-0.144-0.058-0.218-0.087
		C18.169,11.37,18.243,11.397,18.313,11.428z M17.841,11.246c-0.079-0.029-0.16-0.056-0.243-0.085
		C17.68,11.19,17.761,11.217,17.841,11.246z M17.336,11.076c-0.087-0.029-0.175-0.054-0.265-0.081
		C17.161,11.022,17.249,11.047,17.336,11.076z M16.802,10.919c-0.092-0.027-0.189-0.052-0.285-0.078
		C16.613,10.867,16.71,10.892,16.802,10.919z M16.245,10.773c-0.103-0.023-0.206-0.049-0.31-0.072
		C16.039,10.725,16.142,10.75,16.245,10.773z M15.662,10.642c-0.11-0.022-0.222-0.045-0.334-0.067
		C15.44,10.597,15.552,10.62,15.662,10.642z M15.06,10.526c-0.121-0.022-0.242-0.043-0.362-0.061
		C14.818,10.483,14.939,10.505,15.06,10.526z M11.341,10.155c0.644,0.018,1.268,0.059,1.87,0.119
		C12.609,10.214,11.983,10.173,11.341,10.155z M13.374,10.29c0.148,0.013,0.294,0.032,0.44,0.05
		C13.668,10.322,13.522,10.303,13.374,10.29z M7.073,10.351c-0.135,0.016-0.271,0.036-0.404,0.054
		C6.802,10.387,6.937,10.367,7.073,10.351z M9.078,10.176c-0.157,0.009-0.314,0.018-0.469,0.029
		C8.764,10.194,8.921,10.185,9.078,10.176z M8.393,10.218c-0.148,0.013-0.292,0.025-0.44,0.038
		C8.101,10.243,8.245,10.23,8.393,10.218z M7.726,10.277c-0.142,0.014-0.281,0.029-0.422,0.047
		C7.444,10.306,7.583,10.292,7.726,10.277z M1.439,12.043c0.036-0.023,0.079-0.045,0.117-0.069
		C1.518,11.998,1.475,12.019,1.439,12.043z M1.8,11.834c0.051-0.027,0.105-0.052,0.157-0.079C1.904,11.781,1.85,11.806,1.8,11.834z
		 M2.197,11.633c0.061-0.029,0.123-0.056,0.184-0.081C2.319,11.577,2.258,11.605,2.197,11.633z M2.628,11.446
		c0.067-0.031,0.135-0.058,0.204-0.085C2.763,11.388,2.694,11.415,2.628,11.446z M3.086,11.266c0.078-0.027,0.151-0.056,0.229-0.081
		C3.237,11.21,3.163,11.238,3.086,11.266z M3.574,11.098c0.081-0.025,0.162-0.052,0.247-0.078
		C3.736,11.045,3.655,11.073,3.574,11.098z M4.081,10.946c0.092-0.027,0.182-0.054,0.278-0.079
		C4.263,10.892,4.173,10.919,4.081,10.946z M4.507,10.831c0.245-0.063,0.498-0.123,0.757-0.177
		C5.004,10.708,4.752,10.768,4.507,10.831z M5.453,10.614c0.124-0.027,0.253-0.049,0.379-0.072
		C5.706,10.566,5.578,10.587,5.453,10.614z M6.05,10.503c0.13-0.022,0.26-0.042,0.391-0.063C6.31,10.461,6.18,10.481,6.05,10.503z"
		/>
	<path d="M10.483,7.046c1.902,0,3.477-0.521,3.782-1.206c0.036-0.078,0.058-0.159,0.058-0.24c0-0.655-1.151-1.206-2.729-1.385V1.105
		c0-0.613-0.5-1.105-1.111-1.105C9.868,0,9.372,0.492,9.372,1.105v3.109c-1.578,0.179-2.73,0.732-2.73,1.385
		c0,0.083,0.023,0.164,0.059,0.244C7.008,6.525,8.582,7.046,10.483,7.046z"/>
	<path d="M19.866,13.651c-1.607,1.172-4.801,2.002-8.551,2.11c-0.271,0.006-0.546,0.013-0.826,0.013
		c-0.473,0-0.938-0.013-1.394-0.036c-3.5-0.171-6.456-0.974-7.98-2.086C0.402,14.171,0,14.755,0,15.375
		c0,1.949,3.96,3.56,9.094,3.81v7.598c0,0,0,0.002,0,0.004l0,0v0.117h0.013c0.061,0.554,0.525,0.985,1.098,0.985
		c0.57,0,1.037-0.431,1.096-0.985h0.013v-7.702c5.408-0.218,9.666-2.51,9.666-3.827C20.98,14.755,20.576,14.171,19.866,13.651z"/>
</g>
</svg>
