<?xml version="1.0" encoding="utf-8"?>
<!-- Generator: Adobe Illustrator 16.2.1, SVG Export Plug-In . SVG Version: 6.00 Build 0)  -->
<!DOCTYPE svg PUBLIC "-//W3C//DTD SVG 1.1//EN" "http://www.w3.org/Graphics/SVG/1.1/DTD/svg11.dtd">
<svg version="1.1" id="Layer_1" xmlns="http://www.w3.org/2000/svg" xmlns:xlink="http://www.w3.org/1999/xlink" x="0px" y="0px"
	 width="44.999px" height="45px" viewBox="0 0 44.999 45" enable-background="new 0 0 44.999 45" xml:space="preserve">
<g>
	<path d="M20.343,15.915l-1.381,1.009l0.59,0.807l3.117-2.277l-3.004-2.155l-0.582,0.812l1.066,0.767
		c-2.199-0.285-3.648-1.196-3.648-2.037c0-1.01,2.076-2.136,5.055-2.136s5.055,1.126,5.055,2.136c0,0.085-0.014,0.173-0.043,0.26
		l0.949,0.314c0.062-0.188,0.094-0.382,0.094-0.574c0-1.759-2.658-3.136-6.055-3.136c-3.395,0-6.055,1.377-6.055,3.136
		C15.501,14.383,17.548,15.631,20.343,15.915z"/>
	<path d="M29.542,34.296c-0.652,0-1.076-0.186-1.453-0.441c0.221-0.598,0.318-1.652,0.064-3.509
		c-0.443-3.254-2.646-6.193-3.189-6.876v-0.206h0.482V22.28l-0.111-0.048v-2.313c0-0.493-0.135-0.859-0.4-1.088
		c-0.23-0.199-0.508-0.238-0.619-0.22l-3.01,0.006c-0.184-0.028-0.463,0.015-0.693,0.214c-0.266,0.229-0.398,0.594-0.398,1.087
		v2.269l-0.113,0.094v0.983h0.482v0.206c-0.541,0.683-2.744,3.623-3.188,6.876c-0.143,1.039-0.172,1.823-0.135,2.422
		c-0.455-0.271-1.018-0.472-1.803-0.472v1c0.988,0,1.467,0.408,2.021,0.881c0.615,0.524,1.312,1.119,2.67,1.119
		c1.359,0,2.057-0.595,2.674-1.119c0.555-0.473,1.033-0.881,2.023-0.881s1.469,0.408,2.023,0.881
		c0.158,0.135,0.322,0.274,0.502,0.407l0.002,0.013c0.004-0.001,0.008-0.002,0.012-0.003c0.516,0.379,1.156,0.702,2.156,0.702
		V34.296z M24.847,32.296c-1.359,0-2.057,0.595-2.672,1.119c-0.555,0.473-1.035,0.881-2.025,0.881c-0.836,0-1.309-0.298-1.77-0.674
		c0.066,0.018,0.102,0.042,0.104,0.043c-0.006-0.005-0.467-0.479-0.098-3.185c0.457-3.347,3.055-6.48,3.082-6.512l0.115-0.14v-0.573
		h2.381v0.573l0.117,0.14c0.025,0.031,2.625,3.164,3.082,6.512c0.199,1.464,0.154,2.262,0.072,2.698
		C26.679,32.728,26.003,32.296,24.847,32.296z"/>
</g>
</svg>
