<?xml version="1.0" encoding="utf-8"?>
<!-- Generator: Adobe Illustrator 16.2.1, SVG Export Plug-In . SVG Version: 6.00 Build 0)  -->
<!DOCTYPE svg PUBLIC "-//W3C//DTD SVG 1.1//EN" "http://www.w3.org/Graphics/SVG/1.1/DTD/svg11.dtd">
<svg version="1.1" id="Layer_1" xmlns="http://www.w3.org/2000/svg" xmlns:xlink="http://www.w3.org/1999/xlink" x="0px" y="0px"
	 width="44.999px" height="45px" viewBox="0 0 44.999 45" enable-background="new 0 0 44.999 45" xml:space="preserve">
<path d="M33.812,32.405c-0.025-0.101-0.084-0.188-0.159-0.256l-0.054-0.047c-0.881-0.771-2.951-2.576-5.202-4.506l2.65-3.322
	l-1.97-8.625l-7.969-3.84l-7.971,3.84l-1.969,8.625l5.516,6.916h8.846l2.113-2.649c2.189,1.922,4.252,3.7,5.139,4.463l0.073,0.063
	c0.228,0.197,0.593,0.154,0.813-0.1C33.811,32.807,33.862,32.597,33.812,32.405z M26.875,26.298
	c-3.231-2.75-4.763-3.977-5.507-4.514c-0.004-0.012,0.002-0.026-0.003-0.041c-0.032-0.125-0.106-0.239-0.211-0.33
	c-0.252-0.219-0.612-0.219-0.805,0.002c-0.108,0.126-0.146,0.296-0.099,0.47c0.033,0.121,0.107,0.242,0.209,0.33
	c0.115,0.099,0.256,0.146,0.396,0.153c0.62,0.645,2.036,1.982,5.284,4.85l-1.573,1.973h-6.92l-4.314-5.41l1.539-6.748l6.236-3.002
	l6.234,3.002l1.54,6.748L26.875,26.298z"/>
</svg>
