<?xml version="1.0" encoding="iso-8859-1"?>
<!-- Generator: Adobe Illustrator 17.1.0, SVG Export Plug-In . SVG Version: 6.00 Build 0)  -->
<!DOCTYPE svg PUBLIC "-//W3C//DTD SVG 1.1//EN" "http://www.w3.org/Graphics/SVG/1.1/DTD/svg11.dtd">
<svg version="1.1" id="Layer_1" xmlns="http://www.w3.org/2000/svg" xmlns:xlink="http://www.w3.org/1999/xlink" x="0px" y="0px"
	 viewBox="0 0 18.944 20.448" style="enable-background:new 0 0 18.944 20.448;" xml:space="preserve">
<path d="M18.681,0.123c-0.286-0.209-0.686-0.145-0.895,0.14l-5.039,6.919c-0.999-0.136-2.079-0.214-3.212-0.214
	c-1.169,0-2.282,0.082-3.307,0.226l-5.08-6.609C0.932,0.306,0.531,0.253,0.25,0.468C-0.03,0.684-0.083,1.086,0.133,1.366
	l4.676,6.083C2.476,7.964,0.855,8.845,0.581,9.868c-0.018,0.068-0.031,0.137-0.037,0.206H0.53v0.101l0,0l0,0v3.207l0,0l0,0v0.101
	c0,0.011,0.004,0.022,0.005,0.033v3.691c0,0.011-0.005,0.022-0.005,0.034c0,0.011,0.004,0.022,0.005,0.034v0.07h0.01
	c0.155,1.723,4.115,3.103,8.99,3.103s8.835-1.381,8.99-3.103h0.003V17.32c0.002-0.027,0.011-0.052,0.011-0.079
	c0-0.027-0.009-0.052-0.011-0.079v-3.6c0.002-0.027,0.011-0.052,0.011-0.079v-0.101v-3.207v-0.101h-0.014
	c-0.036-0.406-0.273-0.793-0.693-1.147c-0.187-0.157-0.408-0.308-0.661-0.451c-0.757-0.429-1.795-0.789-3.017-1.05l4.668-6.409
	C19.03,0.732,18.967,0.331,18.681,0.123z M1.384,13.483v-1.952c1.436,1.092,4.541,1.851,8.151,1.851s6.715-0.758,8.151-1.851v1.952
	c0,0.799-2.877,2.353-8.151,2.353C4.261,15.837,1.384,14.282,1.384,13.483z M17.686,10.175c0,0.098-0.045,0.209-0.131,0.326
	c-0.1,0.135-0.261,0.279-0.473,0.427c-1.097,0.762-3.672,1.601-7.546,1.601c-3.875,0-6.449-0.839-7.546-1.601
	c-0.212-0.147-0.374-0.292-0.473-0.427c-0.087-0.117-0.131-0.227-0.131-0.326c0-0.032,0.012-0.067,0.022-0.101
	c0.15-0.559,1.517-1.399,3.975-1.88l1.445,1.88l0.328,0.427l0.075,0.097c0.126,0.164,0.316,0.25,0.508,0.25
	c0.136,0,0.273-0.043,0.39-0.133c0.077-0.059,0.135-0.133,0.177-0.215c0.068-0.132,0.088-0.282,0.057-0.427
	c-0.019-0.09-0.056-0.178-0.117-0.256l-1.42-1.847c0.817-0.094,1.722-0.149,2.71-0.149c0.962,0,1.843,0.053,2.642,0.142
	l-1.436,1.972c-0.032,0.043-0.055,0.09-0.074,0.138c-0.056,0.138-0.06,0.289-0.018,0.427c0.039,0.128,0.117,0.245,0.233,0.33
	c0.065,0.048,0.137,0.077,0.21,0.097c0.055,0.015,0.11,0.026,0.166,0.026c0.058,0,0.115-0.01,0.171-0.026
	c0.134-0.037,0.258-0.116,0.347-0.237l0.138-0.189l0.311-0.427l1.38-1.895c2.51,0.478,3.907,1.329,4.059,1.895
	C17.673,10.108,17.686,10.143,17.686,10.175z"/>
</svg>
