<?xml version="1.0" encoding="iso-8859-1"?>
<!-- Generator: Adobe Illustrator 17.1.0, SVG Export Plug-In . SVG Version: 6.00 Build 0)  -->
<!DOCTYPE svg PUBLIC "-//W3C//DTD SVG 1.1//EN" "http://www.w3.org/Graphics/SVG/1.1/DTD/svg11.dtd">
<svg version="1.1" id="Layer_1" xmlns="http://www.w3.org/2000/svg" xmlns:xlink="http://www.w3.org/1999/xlink" x="0px" y="0px"
	 viewBox="0 0 24.056 25.084" style="enable-background:new 0 0 24.056 25.084;" xml:space="preserve">
<g>
	<path d="M23.965,10.014c-0.06-0.816-0.147-1.604-0.26-2.354c-0.095-0.628-0.207-1.228-0.335-1.798
		c-0.128-0.57-0.273-1.109-0.431-1.612c-0.027-0.085-0.053-0.168-0.081-0.251c-0.085-0.256-0.173-0.505-0.266-0.74
		c-0.106-0.27-0.216-0.526-0.331-0.767c-0.172-0.361-0.353-0.688-0.543-0.978c-0.063-0.097-0.127-0.189-0.193-0.277
		c-0.13-0.176-0.264-0.335-0.401-0.476c-0.137-0.141-0.277-0.263-0.42-0.366c-0.214-0.155-0.434-0.266-0.66-0.33
		c-0.075-0.021-0.151-0.038-0.227-0.048C19.743,0.006,19.666,0,19.589,0l0,0c-0.031,0-0.062,0.005-0.093,0.007h-0.687V0h-2.126
		c-0.031,0-0.062,0.005-0.094,0.007h-1.42C15.154,0.006,15.138,0,15.123,0s-0.031,0.006-0.047,0.007h-0.43L14.648,0h-2.126
		c-0.031,0-0.062,0.005-0.093,0.007h-0.554V0H9.748l0,0l0,0C9.716,0,9.685,0.005,9.654,0.007H9.603V0.01
		C7.953,0.158,6.53,2.815,5.801,6.67C5.8,6.675,5.799,6.68,5.798,6.685c-0.032,0.168-0.062,0.338-0.091,0.51
		c-0.003,0.02-0.006,0.04-0.01,0.06C5.671,7.414,5.645,7.573,5.621,7.735C5.616,7.773,5.611,7.811,5.605,7.849
		C5.584,7.996,5.563,8.143,5.544,8.292C5.538,8.343,5.532,8.395,5.526,8.446C5.509,8.584,5.492,8.723,5.476,8.863
		C5.469,8.928,5.463,8.995,5.457,9.06C5.443,9.189,5.43,9.317,5.418,9.447c-0.007,0.082-0.013,0.165-0.02,0.247
		c-0.01,0.117-0.02,0.233-0.028,0.351c-0.007,0.094-0.012,0.19-0.018,0.285c-0.007,0.108-0.014,0.215-0.02,0.324
		c-0.006,0.111-0.01,0.223-0.015,0.335c-0.004,0.095-0.009,0.189-0.013,0.285c-0.005,0.128-0.007,0.258-0.01,0.387
		c-0.002,0.081-0.005,0.162-0.006,0.244c-0.004,0.211-0.006,0.424-0.006,0.638c0,0.214,0.002,0.428,0.006,0.64
		c0.001,0.07,0.004,0.14,0.006,0.21c0.003,0.14,0.006,0.281,0.011,0.42c0.003,0.096,0.008,0.19,0.013,0.285
		c0.005,0.112,0.009,0.224,0.015,0.335c0.006,0.112,0.014,0.223,0.021,0.335c0.006,0.091,0.011,0.183,0.017,0.273
		c0.009,0.12,0.019,0.239,0.029,0.357c0.007,0.08,0.013,0.162,0.02,0.242c0.011,0.127,0.024,0.251,0.037,0.376
		c0.005,0.053,0.01,0.107,0.016,0.16c-0.251-0.588-0.921-0.882-1.525-0.654c-0.621,0.234-0.936,0.927-0.702,1.549l0.556,1.479
		c0.168,0.445,0.572,0.729,1.016,0.77l1.032,2.647l-5.415,1.839c-0.007,0.002-0.013,0.006-0.02,0.009
		C0.393,23.82,0.372,23.83,0.352,23.84c-0.018,0.009-0.035,0.018-0.052,0.028c-0.018,0.011-0.034,0.024-0.05,0.037
		c-0.016,0.013-0.033,0.025-0.048,0.04c-0.015,0.014-0.028,0.029-0.041,0.044c-0.014,0.015-0.027,0.031-0.039,0.048
		c-0.012,0.017-0.023,0.035-0.033,0.054c-0.01,0.017-0.02,0.034-0.028,0.052c-0.009,0.019-0.016,0.04-0.023,0.06
		c-0.007,0.019-0.013,0.038-0.018,0.058c-0.005,0.02-0.007,0.04-0.01,0.06c-0.003,0.022-0.006,0.044-0.007,0.067
		C0.002,24.394,0,24.401,0,24.409c0,0.013,0.003,0.026,0.004,0.039c0.001,0.022,0.003,0.043,0.007,0.064
		c0.004,0.023,0.01,0.046,0.016,0.069c0.003,0.011,0.004,0.023,0.008,0.034c0.002,0.005,0.005,0.008,0.007,0.012
		c0.021,0.057,0.049,0.11,0.083,0.157c0.007,0.009,0.014,0.017,0.021,0.026c0.034,0.042,0.072,0.08,0.115,0.111
		c0.005,0.004,0.01,0.009,0.015,0.012c0.047,0.033,0.099,0.057,0.153,0.076c0.012,0.004,0.025,0.008,0.037,0.012
		c0.055,0.016,0.112,0.026,0.17,0.027l0.004,0.001l0.001,0H8.59c0.154,0,0.293-0.056,0.404-0.147
		c0.199,0.095,0.403,0.144,0.61,0.164v0.002H9.62c0.043,0.004,0.084,0.016,0.127,0.016h0l2.126,0v-0.016h0.428
		c0.073,0.01,0.146,0.016,0.22,0.016h2.126l-0.004-0.016h0.369c0.037,0.003,0.073,0.016,0.11,0.016c0.037,0,0.073-0.013,0.11-0.016
		h1.231c0.073,0.01,0.146,0.016,0.22,0.016h2.126v-0.016h0.561c0.073,0.01,0.146,0.016,0.22,0.016h0c0.077,0,0.154-0.005,0.23-0.016
		c0.152-0.022,0.303-0.065,0.45-0.128c0.222-0.095,0.438-0.236,0.648-0.419c0.14-0.122,0.277-0.263,0.41-0.422
		s0.264-0.335,0.39-0.528c0.19-0.29,0.371-0.617,0.543-0.978c0.172-0.361,0.334-0.756,0.486-1.182
		c0.152-0.426,0.292-0.882,0.421-1.364c0.086-0.322,0.166-0.656,0.241-1.001c0.112-0.517,0.211-1.059,0.296-1.622
		c0.028-0.188,0.055-0.377,0.08-0.57c0.05-0.384,0.094-0.777,0.13-1.178c0.092-1.002,0.141-2.052,0.141-3.134
		C24.056,11.676,24.025,10.831,23.965,10.014z M9.748,0.854h1.154C9.236,2.675,8.055,7.22,8.055,12.542
		c0,5.322,1.181,9.867,2.847,11.688H9.747c-0.603,0-1.539-0.816-2.354-3.106c-0.812-2.279-1.259-5.327-1.259-8.582
		C6.135,5.3,8.239,0.854,9.748,0.854z M17.955,0.87c-1.658,1.832-2.833,6.365-2.833,11.672c0,5.307,1.174,9.84,2.833,11.672v0.016
		h-1.272c-0.603,0-1.539-0.816-2.354-3.106c-0.812-2.279-1.259-5.327-1.259-8.582c0-7.242,2.104-11.688,3.613-11.688h1.272V0.87z
		 M19.589,24.23c-0.222,0-0.49-0.112-0.78-0.367c-0.138-0.121-0.281-0.277-0.427-0.467c-0.141-0.183-0.283-0.401-0.427-0.655
		c-0.243-0.43-0.486-0.961-0.72-1.618c-0.812-2.279-1.259-5.327-1.259-8.582c0-4.787,0.92-8.352,1.979-10.219
		c0.14-0.247,0.283-0.466,0.427-0.653c0.142-0.185,0.285-0.338,0.427-0.461c0.268-0.233,0.532-0.355,0.78-0.355
		c0.603,0,1.539,0.816,2.354,3.106c0.812,2.279,1.259,5.327,1.259,8.582C23.202,19.783,21.098,24.23,19.589,24.23z"/>
	<path d="M19.589,14.852c-0.311,0-0.589,0.383-0.78,0.988c-0.164,0.518-0.264,1.197-0.264,1.943c0,0.747,0.1,1.426,0.264,1.944
		c0.191,0.605,0.469,0.988,0.78,0.988c0.577,0,1.044-1.312,1.044-2.931C20.633,16.165,20.166,14.852,19.589,14.852z"/>
</g>
</svg>
