<?xml version="1.0" encoding="iso-8859-1"?>
<!-- Generator: Adobe Illustrator 17.1.0, SVG Export Plug-In . SVG Version: 6.00 Build 0)  -->
<!DOCTYPE svg PUBLIC "-//W3C//DTD SVG 1.1//EN" "http://www.w3.org/Graphics/SVG/1.1/DTD/svg11.dtd">
<svg version="1.1" id="Layer_1" xmlns="http://www.w3.org/2000/svg" xmlns:xlink="http://www.w3.org/1999/xlink" x="0px" y="0px"
	 viewBox="0 0 19.005 18.009" style="enable-background:new 0 0 19.005 18.009;" xml:space="preserve">
<g>
	<path d="M18.605,3.97c-0.084-0.479-0.18-0.925-0.286-1.333c-0.106-0.407-0.222-0.776-0.346-1.1C17.6,0.567,17.15,0,16.665,0
		L16.66,0.001c-0.014,0-0.028,0.007-0.043,0.008V0.005h-0.361V0l-1.114,0c-0.008,0-0.016,0.004-0.016,0.004l-0.777,0
		C14.342,0.004,14.334,0,14.325,0c-0.008,0-0.016,0.004-0.025,0.005h-0.225L14.076,0h-1.114c-0.008,0-0.016,0.004-0.025,0.005
		h-0.315V0H7.128C7.12,0,7.112,0.004,7.104,0.005H7.053v0.01v0C6.581,0.073,6.145,0.663,5.784,1.641
		c0,0.001-0.001,0.002-0.001,0.003c-0.059,0.16-0.117,0.331-0.172,0.512C5.608,2.167,5.605,2.179,5.602,2.19
		C5.55,2.361,5.5,2.541,5.452,2.73C5.446,2.754,5.44,2.781,5.434,2.805C5.39,2.984,5.347,3.167,5.307,3.358
		C5.298,3.401,5.29,3.447,5.281,3.491C5.245,3.669,5.21,3.85,5.177,4.039C5.166,4.104,5.156,4.173,5.146,4.238
		c-0.028,0.174-0.057,0.348-0.082,0.53c-0.012,0.09-0.023,0.184-0.034,0.275C5.008,5.208,4.987,5.372,4.968,5.542
		C4.956,5.659,4.946,5.781,4.934,5.9C4.92,6.052,4.904,6.202,4.892,6.357c-0.012,0.145-0.02,0.295-0.03,0.443
		c-0.009,0.136-0.019,0.27-0.027,0.408c-0.01,0.187-0.016,0.379-0.023,0.57C4.809,7.884,4.803,7.987,4.8,8.093
		c-0.008,0.3-0.012,0.604-0.012,0.912S4.793,9.616,4.8,9.916c0.003,0.106,0.008,0.209,0.012,0.314
		c0.007,0.191,0.013,0.383,0.023,0.57c0.007,0.138,0.018,0.272,0.027,0.408c0.01,0.148,0.018,0.299,0.03,0.444
		c0.013,0.157,0.028,0.308,0.043,0.461c0.011,0.118,0.021,0.238,0.034,0.354c0.005,0.044,0.01,0.087,0.015,0.131l-0.634-2.229
		c0.128-0.301,0.163-0.673,0.066-1.025L4.009,7.864c-0.171-0.621-0.677-0.936-1.13-0.702C2.426,7.397,2.197,8.09,2.367,8.711
		l0.406,1.479c0.122,0.446,0.418,0.729,0.742,0.77l0.753,2.647l-3.951,1.839c-0.005,0.002-0.009,0.006-0.014,0.009
		c-0.016,0.008-0.031,0.018-0.046,0.029c-0.013,0.009-0.025,0.017-0.037,0.028c-0.013,0.011-0.025,0.024-0.037,0.037
		c-0.012,0.013-0.024,0.025-0.034,0.039c-0.011,0.014-0.021,0.03-0.031,0.045c-0.01,0.015-0.019,0.03-0.028,0.046
		c-0.009,0.017-0.017,0.036-0.025,0.055c-0.007,0.017-0.014,0.033-0.02,0.051c-0.006,0.019-0.011,0.04-0.017,0.06
		c-0.005,0.019-0.01,0.038-0.013,0.058c-0.003,0.019-0.005,0.039-0.007,0.059c-0.002,0.023-0.004,0.045-0.005,0.069
		C0.001,16.038,0,16.045,0,16.052c0,0.013,0.002,0.025,0.003,0.037c0.001,0.023,0.002,0.045,0.005,0.067
		c0.003,0.022,0.007,0.044,0.011,0.066c0.002,0.012,0.003,0.024,0.006,0.036c0.001,0.005,0.004,0.008,0.005,0.013
		c0.015,0.057,0.036,0.109,0.06,0.156c0.005,0.009,0.011,0.017,0.016,0.026c0.025,0.042,0.053,0.08,0.084,0.112
		c0.004,0.004,0.007,0.008,0.011,0.012c0.034,0.033,0.073,0.057,0.112,0.076c0.009,0.004,0.018,0.008,0.027,0.011
		c0.04,0.016,0.082,0.026,0.124,0.027l0.003,0.001l0.001,0h5.447c0.334,0.782,0.722,1.25,1.138,1.302l0,0v0.003h0.018
		C7.09,18,7.109,18.009,7.128,18.009h0h5.495v-0.011h0.282c0.019,0.002,0.038,0.011,0.058,0.011h1.114l-0.002-0.011h0.193
		c0.019,0.002,0.038,0.011,0.058,0.011c0.019,0,0.038-0.009,0.058-0.011h0.702c0.019,0.002,0.038,0.011,0.058,0.011h1.114v-0.011
		h0.351c0.019,0.002,0.038,0.011,0.058,0.011c1.292,0,2.34-4.031,2.34-9.004C19.005,7.14,18.858,5.407,18.605,3.97z M16.665,17.155
		c-0.109,0-0.252-0.125-0.409-0.37c-0.1-0.156-0.205-0.365-0.311-0.629c-0.105-0.261-0.21-0.574-0.311-0.945
		c-0.012-0.044-0.024-0.082-0.036-0.127c-0.419-1.611-0.649-3.771-0.649-6.081c0-2.31,0.231-4.47,0.649-6.081
		c0.012-0.045,0.024-0.083,0.036-0.127c0.101-0.371,0.206-0.684,0.311-0.945c0.106-0.263,0.211-0.472,0.311-0.629
		c0.157-0.245,0.3-0.37,0.409-0.37c0.255,0,0.698,0.648,1.068,2.07c0.419,1.611,0.649,3.771,0.649,6.081
		C18.382,14.278,17.248,17.155,16.665,17.155z M5.411,9.005c0-2.31,0.231-4.47,0.649-6.081c0.37-1.422,0.813-2.07,1.068-2.07h0.463
		c-0.797,1.436-1.35,4.541-1.35,8.151s0.553,6.715,1.35,8.151H7.128c-0.157,0-0.353-0.214-0.557-0.62
		c-0.141-0.281-0.284-0.656-0.421-1.123C5.749,14.04,5.411,11.882,5.411,9.005z M15.634,0.932c-0.774,1.468-1.308,4.527-1.308,8.073
		s0.534,6.605,1.308,8.073v0.078h-0.491c-0.583,0-1.717-2.877-1.717-8.151s1.134-8.151,1.717-8.151h0.491V0.932z"/>
</g>
<ellipse cx="16.71" cy="9.011" rx="1.952" ry="8.575"/>
<ellipse style="fill:#FFFFFF;" cx="16.561" cy="13.911" rx="0.547" ry="2.105"/>
</svg>
