<?xml version="1.0" encoding="utf-8"?>
<!-- Generator: Adobe Illustrator 16.2.1, SVG Export Plug-In . SVG Version: 6.00 Build 0)  -->
<!DOCTYPE svg PUBLIC "-//W3C//DTD SVG 1.1//EN" "http://www.w3.org/Graphics/SVG/1.1/DTD/svg11.dtd">
<svg version="1.1" id="Layer_1" xmlns="http://www.w3.org/2000/svg" xmlns:xlink="http://www.w3.org/1999/xlink" x="0px" y="0px"
	 width="44.999px" height="45px" viewBox="0 0 44.999 45" enable-background="new 0 0 44.999 45" xml:space="preserve">
<path d="M31.395,23.303v2.547l-5.246-4.819c0.82-1.349,0.562-3.131-0.687-4.169l-2.116-1.759c-0.58-0.482-1.316-0.749-2.07-0.749
	c-0.967,0-1.876,0.428-2.492,1.17c-0.553,0.666-0.813,1.507-0.734,2.369c0.08,0.861,0.49,1.641,1.156,2.193l2.115,1.756
	c0.58,0.484,1.316,0.75,2.07,0.75c0.615,0,1.198-0.189,1.707-0.506l3.057,2.808l-15.043,4.264h-0.995v1.488h20.767v-7.343H31.395z
	 M18.568,29.157l10.873-3.081l1.953,1.795v1.286H18.568z"/>
</svg>
